<?xml version="1.0" encoding="utf-8" standalone="no"?>
<!DOCTYPE svg PUBLIC "-//W3C//DTD SVG 1.1//EN"
  "http://www.w3.org/Graphics/SVG/1.1/DTD/svg11.dtd">
<svg xmlns:xlink="http://www.w3.org/1999/xlink" width="1080pt" height="360pt" viewBox="0 0 1080 360" xmlns="http://www.w3.org/2000/svg" version="1.1">
 <metadata>
  <rdf:RDF xmlns:dc="http://purl.org/dc/elements/1.1/" xmlns:cc="http://creativecommons.org/ns#" xmlns:rdf="http://www.w3.org/1999/02/22-rdf-syntax-ns#">
   <cc:Work>
    <dc:type rdf:resource="http://purl.org/dc/dcmitype/StillImage"/>
    <dc:date>2024-01-07T11:10:39.808969</dc:date>
    <dc:format>image/svg+xml</dc:format>
    <dc:creator>
     <cc:Agent>
      <dc:title>Matplotlib v3.8.1, https://matplotlib.org/</dc:title>
     </cc:Agent>
    </dc:creator>
   </cc:Work>
  </rdf:RDF>
 </metadata>
 <defs>
  <style type="text/css">*{stroke-linejoin: round; stroke-linecap: butt}</style>
 </defs>
 <g id="figure_1">
  <g id="patch_1">
   <path d="M 0 360 
L 1080 360 
L 1080 0 
L 0 0 
z
" style="fill: #ffffff"/>
  </g>
  <g id="axes_1">
   <g id="patch_2">
    <path d="M 135 320.4 
L 972 320.4 
L 972 43.2 
L 135 43.2 
z
" style="fill: #ffffff"/>
   </g>
   <g id="matplotlib.axis_1">
    <g id="xtick_1">
     <g id="line2d_1">
      <defs>
       <path id="m34e1129dd2" d="M 0 0 
L 0 3.5 
" style="stroke: #000000; stroke-width: 0.8"/>
      </defs>
      <g>
       <use xlink:href="#m34e1129dd2" x="173.045455" y="320.4" style="stroke: #000000; stroke-width: 0.8"/>
      </g>
     </g>
     <g id="text_1">
      <!-- SKG -->
      <g transform="translate(160.917049 349.086703) rotate(-60) scale(0.1 -0.1)">
       <defs>
        <path id="DejaVuSans-53" d="M 3425 4513 
L 3425 3897 
Q 3066 4069 2747 4153 
Q 2428 4238 2131 4238 
Q 1616 4238 1336 4038 
Q 1056 3838 1056 3469 
Q 1056 3159 1242 3001 
Q 1428 2844 1947 2747 
L 2328 2669 
Q 3034 2534 3370 2195 
Q 3706 1856 3706 1288 
Q 3706 609 3251 259 
Q 2797 -91 1919 -91 
Q 1588 -91 1214 -16 
Q 841 59 441 206 
L 441 856 
Q 825 641 1194 531 
Q 1563 422 1919 422 
Q 2459 422 2753 634 
Q 3047 847 3047 1241 
Q 3047 1584 2836 1778 
Q 2625 1972 2144 2069 
L 1759 2144 
Q 1053 2284 737 2584 
Q 422 2884 422 3419 
Q 422 4038 858 4394 
Q 1294 4750 2059 4750 
Q 2388 4750 2728 4690 
Q 3069 4631 3425 4513 
z
" transform="scale(0.015625)"/>
        <path id="DejaVuSans-4b" d="M 628 4666 
L 1259 4666 
L 1259 2694 
L 3353 4666 
L 4166 4666 
L 1850 2491 
L 4331 0 
L 3500 0 
L 1259 2247 
L 1259 0 
L 628 0 
L 628 4666 
z
" transform="scale(0.015625)"/>
        <path id="DejaVuSans-47" d="M 3809 666 
L 3809 1919 
L 2778 1919 
L 2778 2438 
L 4434 2438 
L 4434 434 
Q 4069 175 3628 42 
Q 3188 -91 2688 -91 
Q 1594 -91 976 548 
Q 359 1188 359 2328 
Q 359 3472 976 4111 
Q 1594 4750 2688 4750 
Q 3144 4750 3555 4637 
Q 3966 4525 4313 4306 
L 4313 3634 
Q 3963 3931 3569 4081 
Q 3175 4231 2741 4231 
Q 1884 4231 1454 3753 
Q 1025 3275 1025 2328 
Q 1025 1384 1454 906 
Q 1884 428 2741 428 
Q 3075 428 3337 486 
Q 3600 544 3809 666 
z
" transform="scale(0.015625)"/>
       </defs>
       <use xlink:href="#DejaVuSans-53"/>
       <use xlink:href="#DejaVuSans-4b" x="63.476562"/>
       <use xlink:href="#DejaVuSans-47" x="129.052734"/>
      </g>
     </g>
    </g>
    <g id="xtick_2">
     <g id="line2d_2">
      <g>
       <use xlink:href="#m34e1129dd2" x="180.731405" y="320.4" style="stroke: #000000; stroke-width: 0.8"/>
      </g>
     </g>
     <g id="text_2">
      <!-- RTO -->
      <g transform="translate(168.82878 348.695638) rotate(-60) scale(0.1 -0.1)">
       <defs>
        <path id="DejaVuSans-52" d="M 2841 2188 
Q 3044 2119 3236 1894 
Q 3428 1669 3622 1275 
L 4263 0 
L 3584 0 
L 2988 1197 
Q 2756 1666 2539 1819 
Q 2322 1972 1947 1972 
L 1259 1972 
L 1259 0 
L 628 0 
L 628 4666 
L 2053 4666 
Q 2853 4666 3247 4331 
Q 3641 3997 3641 3322 
Q 3641 2881 3436 2590 
Q 3231 2300 2841 2188 
z
M 1259 4147 
L 1259 2491 
L 2053 2491 
Q 2509 2491 2742 2702 
Q 2975 2913 2975 3322 
Q 2975 3731 2742 3939 
Q 2509 4147 2053 4147 
L 1259 4147 
z
" transform="scale(0.015625)"/>
        <path id="DejaVuSans-54" d="M -19 4666 
L 3928 4666 
L 3928 4134 
L 2272 4134 
L 2272 0 
L 1638 0 
L 1638 4134 
L -19 4134 
L -19 4666 
z
" transform="scale(0.015625)"/>
        <path id="DejaVuSans-4f" d="M 2522 4238 
Q 1834 4238 1429 3725 
Q 1025 3213 1025 2328 
Q 1025 1447 1429 934 
Q 1834 422 2522 422 
Q 3209 422 3611 934 
Q 4013 1447 4013 2328 
Q 4013 3213 3611 3725 
Q 3209 4238 2522 4238 
z
M 2522 4750 
Q 3503 4750 4090 4092 
Q 4678 3434 4678 2328 
Q 4678 1225 4090 567 
Q 3503 -91 2522 -91 
Q 1538 -91 948 565 
Q 359 1222 359 2328 
Q 359 3434 948 4092 
Q 1538 4750 2522 4750 
z
" transform="scale(0.015625)"/>
       </defs>
       <use xlink:href="#DejaVuSans-52"/>
       <use xlink:href="#DejaVuSans-54" x="62.232422"/>
       <use xlink:href="#DejaVuSans-4f" x="123.316406"/>
      </g>
     </g>
    </g>
    <g id="xtick_3">
     <g id="line2d_3">
      <g>
       <use xlink:href="#m34e1129dd2" x="188.417355" y="320.4" style="stroke: #000000; stroke-width: 0.8"/>
      </g>
     </g>
     <g id="text_3">
      <!-- DGE -->
      <g transform="translate(175.732699 350.050156) rotate(-60) scale(0.1 -0.1)">
       <defs>
        <path id="DejaVuSans-44" d="M 1259 4147 
L 1259 519 
L 2022 519 
Q 2988 519 3436 956 
Q 3884 1394 3884 2338 
Q 3884 3275 3436 3711 
Q 2988 4147 2022 4147 
L 1259 4147 
z
M 628 4666 
L 1925 4666 
Q 3281 4666 3915 4102 
Q 4550 3538 4550 2338 
Q 4550 1131 3912 565 
Q 3275 0 1925 0 
L 628 0 
L 628 4666 
z
" transform="scale(0.015625)"/>
        <path id="DejaVuSans-45" d="M 628 4666 
L 3578 4666 
L 3578 4134 
L 1259 4134 
L 1259 2753 
L 3481 2753 
L 3481 2222 
L 1259 2222 
L 1259 531 
L 3634 531 
L 3634 0 
L 628 0 
L 628 4666 
z
" transform="scale(0.015625)"/>
       </defs>
       <use xlink:href="#DejaVuSans-44"/>
       <use xlink:href="#DejaVuSans-47" x="77.001953"/>
       <use xlink:href="#DejaVuSans-45" x="154.492188"/>
      </g>
     </g>
    </g>
    <g id="xtick_4">
     <g id="line2d_4">
      <g>
       <use xlink:href="#m34e1129dd2" x="196.103306" y="320.4" style="stroke: #000000; stroke-width: 0.8"/>
      </g>
     </g>
     <g id="text_4">
      <!-- AUTO -->
      <g transform="translate(180.232712 355.568362) rotate(-60) scale(0.1 -0.1)">
       <defs>
        <path id="DejaVuSans-41" d="M 2188 4044 
L 1331 1722 
L 3047 1722 
L 2188 4044 
z
M 1831 4666 
L 2547 4666 
L 4325 0 
L 3669 0 
L 3244 1197 
L 1141 1197 
L 716 0 
L 50 0 
L 1831 4666 
z
" transform="scale(0.015625)"/>
        <path id="DejaVuSans-55" d="M 556 4666 
L 1191 4666 
L 1191 1831 
Q 1191 1081 1462 751 
Q 1734 422 2344 422 
Q 2950 422 3222 751 
Q 3494 1081 3494 1831 
L 3494 4666 
L 4128 4666 
L 4128 1753 
Q 4128 841 3676 375 
Q 3225 -91 2344 -91 
Q 1459 -91 1007 375 
Q 556 841 556 1753 
L 556 4666 
z
" transform="scale(0.015625)"/>
       </defs>
       <use xlink:href="#DejaVuSans-41"/>
       <use xlink:href="#DejaVuSans-55" x="68.408203"/>
       <use xlink:href="#DejaVuSans-54" x="141.601562"/>
       <use xlink:href="#DejaVuSans-4f" x="202.685547"/>
      </g>
     </g>
    </g>
    <g id="xtick_5">
     <g id="line2d_5">
      <g>
       <use xlink:href="#m34e1129dd2" x="203.789256" y="320.4" style="stroke: #000000; stroke-width: 0.8"/>
      </g>
     </g>
     <g id="text_5">
      <!-- HLMA -->
      <g transform="translate(187.707725 355.933716) rotate(-60) scale(0.1 -0.1)">
       <defs>
        <path id="DejaVuSans-48" d="M 628 4666 
L 1259 4666 
L 1259 2753 
L 3553 2753 
L 3553 4666 
L 4184 4666 
L 4184 0 
L 3553 0 
L 3553 2222 
L 1259 2222 
L 1259 0 
L 628 0 
L 628 4666 
z
" transform="scale(0.015625)"/>
        <path id="DejaVuSans-4c" d="M 628 4666 
L 1259 4666 
L 1259 531 
L 3531 531 
L 3531 0 
L 628 0 
L 628 4666 
z
" transform="scale(0.015625)"/>
        <path id="DejaVuSans-4d" d="M 628 4666 
L 1569 4666 
L 2759 1491 
L 3956 4666 
L 4897 4666 
L 4897 0 
L 4281 0 
L 4281 4097 
L 3078 897 
L 2444 897 
L 1241 4097 
L 1241 0 
L 628 0 
L 628 4666 
z
" transform="scale(0.015625)"/>
       </defs>
       <use xlink:href="#DejaVuSans-48"/>
       <use xlink:href="#DejaVuSans-4c" x="75.195312"/>
       <use xlink:href="#DejaVuSans-4d" x="130.908203"/>
       <use xlink:href="#DejaVuSans-41" x="217.1875"/>
      </g>
     </g>
    </g>
    <g id="xtick_6">
     <g id="line2d_6">
      <g>
       <use xlink:href="#m34e1129dd2" x="211.475207" y="320.4" style="stroke: #000000; stroke-width: 0.8"/>
      </g>
     </g>
     <g id="text_6">
      <!-- ULVR -->
      <g transform="translate(196.884301 353.351878) rotate(-60) scale(0.1 -0.1)">
       <defs>
        <path id="DejaVuSans-56" d="M 1831 0 
L 50 4666 
L 709 4666 
L 2188 738 
L 3669 4666 
L 4325 4666 
L 2547 0 
L 1831 0 
z
" transform="scale(0.015625)"/>
       </defs>
       <use xlink:href="#DejaVuSans-55"/>
       <use xlink:href="#DejaVuSans-4c" x="73.193359"/>
       <use xlink:href="#DejaVuSans-56" x="117.90625"/>
       <use xlink:href="#DejaVuSans-52" x="186.314453"/>
      </g>
     </g>
    </g>
    <g id="xtick_7">
     <g id="line2d_7">
      <g>
       <use xlink:href="#m34e1129dd2" x="219.161157" y="320.4" style="stroke: #000000; stroke-width: 0.8"/>
      </g>
     </g>
     <g id="text_7">
      <!-- PSON -->
      <g transform="translate(203.49447 355.215186) rotate(-60) scale(0.1 -0.1)">
       <defs>
        <path id="DejaVuSans-50" d="M 1259 4147 
L 1259 2394 
L 2053 2394 
Q 2494 2394 2734 2622 
Q 2975 2850 2975 3272 
Q 2975 3691 2734 3919 
Q 2494 4147 2053 4147 
L 1259 4147 
z
M 628 4666 
L 2053 4666 
Q 2838 4666 3239 4311 
Q 3641 3956 3641 3272 
Q 3641 2581 3239 2228 
Q 2838 1875 2053 1875 
L 1259 1875 
L 1259 0 
L 628 0 
L 628 4666 
z
" transform="scale(0.015625)"/>
        <path id="DejaVuSans-4e" d="M 628 4666 
L 1478 4666 
L 3547 763 
L 3547 4666 
L 4159 4666 
L 4159 0 
L 3309 0 
L 1241 3903 
L 1241 0 
L 628 0 
L 628 4666 
z
" transform="scale(0.015625)"/>
       </defs>
       <use xlink:href="#DejaVuSans-50"/>
       <use xlink:href="#DejaVuSans-53" x="60.302734"/>
       <use xlink:href="#DejaVuSans-4f" x="123.779297"/>
       <use xlink:href="#DejaVuSans-4e" x="202.490234"/>
      </g>
     </g>
    </g>
    <g id="xtick_8">
     <g id="line2d_8">
      <g>
       <use xlink:href="#m34e1129dd2" x="226.847107" y="320.4" style="stroke: #000000; stroke-width: 0.8"/>
      </g>
     </g>
     <g id="text_8">
      <!-- EDV -->
      <g transform="translate(214.703858 349.112413) rotate(-60) scale(0.1 -0.1)">
       <use xlink:href="#DejaVuSans-45"/>
       <use xlink:href="#DejaVuSans-44" x="63.183594"/>
       <use xlink:href="#DejaVuSans-56" x="138.435547"/>
      </g>
     </g>
    </g>
    <g id="xtick_9">
     <g id="line2d_9">
      <g>
       <use xlink:href="#m34e1129dd2" x="234.533058" y="320.4" style="stroke: #000000; stroke-width: 0.8"/>
      </g>
     </g>
     <g id="text_9">
      <!-- HSBA -->
      <g transform="translate(218.946839 355.07581) rotate(-60) scale(0.1 -0.1)">
       <defs>
        <path id="DejaVuSans-42" d="M 1259 2228 
L 1259 519 
L 2272 519 
Q 2781 519 3026 730 
Q 3272 941 3272 1375 
Q 3272 1813 3026 2020 
Q 2781 2228 2272 2228 
L 1259 2228 
z
M 1259 4147 
L 1259 2741 
L 2194 2741 
Q 2656 2741 2882 2914 
Q 3109 3088 3109 3444 
Q 3109 3797 2882 3972 
Q 2656 4147 2194 4147 
L 1259 4147 
z
M 628 4666 
L 2241 4666 
Q 2963 4666 3353 4366 
Q 3744 4066 3744 3513 
Q 3744 3084 3544 2831 
Q 3344 2578 2956 2516 
Q 3422 2416 3680 2098 
Q 3938 1781 3938 1306 
Q 3938 681 3513 340 
Q 3088 0 2303 0 
L 628 0 
L 628 4666 
z
" transform="scale(0.015625)"/>
       </defs>
       <use xlink:href="#DejaVuSans-48"/>
       <use xlink:href="#DejaVuSans-53" x="75.195312"/>
       <use xlink:href="#DejaVuSans-42" x="138.671875"/>
       <use xlink:href="#DejaVuSans-41" x="207.275391"/>
      </g>
     </g>
    </g>
    <g id="xtick_10">
     <g id="line2d_10">
      <g>
       <use xlink:href="#m34e1129dd2" x="242.219008" y="320.4" style="stroke: #000000; stroke-width: 0.8"/>
      </g>
     </g>
     <g id="text_10">
      <!-- SSE -->
      <g transform="translate(230.910134 347.667233) rotate(-60) scale(0.1 -0.1)">
       <use xlink:href="#DejaVuSans-53"/>
       <use xlink:href="#DejaVuSans-53" x="63.476562"/>
       <use xlink:href="#DejaVuSans-45" x="126.953125"/>
      </g>
     </g>
    </g>
    <g id="xtick_11">
     <g id="line2d_11">
      <g>
       <use xlink:href="#m34e1129dd2" x="249.904959" y="320.4" style="stroke: #000000; stroke-width: 0.8"/>
      </g>
     </g>
     <g id="text_11">
      <!-- STAN -->
      <g transform="translate(235.102334 353.718586) rotate(-60) scale(0.1 -0.1)">
       <use xlink:href="#DejaVuSans-53"/>
       <use xlink:href="#DejaVuSans-54" x="63.476562"/>
       <use xlink:href="#DejaVuSans-41" x="116.810547"/>
       <use xlink:href="#DejaVuSans-4e" x="185.21875"/>
      </g>
     </g>
    </g>
    <g id="xtick_12">
     <g id="line2d_12">
      <g>
       <use xlink:href="#m34e1129dd2" x="257.590909" y="320.4" style="stroke: #000000; stroke-width: 0.8"/>
      </g>
     </g>
     <g id="text_12">
      <!-- CRDA -->
      <g transform="translate(241.641409 355.705031) rotate(-60) scale(0.1 -0.1)">
       <defs>
        <path id="DejaVuSans-43" d="M 4122 4306 
L 4122 3641 
Q 3803 3938 3442 4084 
Q 3081 4231 2675 4231 
Q 1875 4231 1450 3742 
Q 1025 3253 1025 2328 
Q 1025 1406 1450 917 
Q 1875 428 2675 428 
Q 3081 428 3442 575 
Q 3803 722 4122 1019 
L 4122 359 
Q 3791 134 3420 21 
Q 3050 -91 2638 -91 
Q 1578 -91 968 557 
Q 359 1206 359 2328 
Q 359 3453 968 4101 
Q 1578 4750 2638 4750 
Q 3056 4750 3426 4639 
Q 3797 4528 4122 4306 
z
" transform="scale(0.015625)"/>
       </defs>
       <use xlink:href="#DejaVuSans-43"/>
       <use xlink:href="#DejaVuSans-52" x="69.824219"/>
       <use xlink:href="#DejaVuSans-44" x="139.306641"/>
       <use xlink:href="#DejaVuSans-41" x="214.558594"/>
      </g>
     </g>
    </g>
    <g id="xtick_13">
     <g id="line2d_13">
      <g>
       <use xlink:href="#m34e1129dd2" x="265.27686" y="320.4" style="stroke: #000000; stroke-width: 0.8"/>
      </g>
     </g>
     <g id="text_13">
      <!-- MNDI -->
      <g transform="translate(250.09611 354.373517) rotate(-60) scale(0.1 -0.1)">
       <defs>
        <path id="DejaVuSans-49" d="M 628 4666 
L 1259 4666 
L 1259 0 
L 628 0 
L 628 4666 
z
" transform="scale(0.015625)"/>
       </defs>
       <use xlink:href="#DejaVuSans-4d"/>
       <use xlink:href="#DejaVuSans-4e" x="86.279297"/>
       <use xlink:href="#DejaVuSans-44" x="161.083984"/>
       <use xlink:href="#DejaVuSans-49" x="238.085938"/>
      </g>
     </g>
    </g>
    <g id="xtick_14">
     <g id="line2d_14">
      <g>
       <use xlink:href="#m34e1129dd2" x="272.96281" y="320.4" style="stroke: #000000; stroke-width: 0.8"/>
      </g>
     </g>
     <g id="text_14">
      <!-- DCC -->
      <g transform="translate(260.328935 349.9622) rotate(-60) scale(0.1 -0.1)">
       <use xlink:href="#DejaVuSans-44"/>
       <use xlink:href="#DejaVuSans-43" x="77.001953"/>
       <use xlink:href="#DejaVuSans-43" x="146.826172"/>
      </g>
     </g>
    </g>
    <g id="xtick_15">
     <g id="line2d_15">
      <g>
       <use xlink:href="#m34e1129dd2" x="280.64876" y="320.4" style="stroke: #000000; stroke-width: 0.8"/>
      </g>
     </g>
     <g id="text_15">
      <!-- GSK -->
      <g transform="translate(268.520354 349.086703) rotate(-60) scale(0.1 -0.1)">
       <use xlink:href="#DejaVuSans-47"/>
       <use xlink:href="#DejaVuSans-53" x="77.490234"/>
       <use xlink:href="#DejaVuSans-4b" x="140.966797"/>
      </g>
     </g>
    </g>
    <g id="xtick_16">
     <g id="line2d_16">
      <g>
       <use xlink:href="#m34e1129dd2" x="288.334711" y="320.4" style="stroke: #000000; stroke-width: 0.8"/>
      </g>
     </g>
     <g id="text_16">
      <!-- SGE -->
      <g transform="translate(276.325836 348.879669) rotate(-60) scale(0.1 -0.1)">
       <use xlink:href="#DejaVuSans-53"/>
       <use xlink:href="#DejaVuSans-47" x="63.476562"/>
       <use xlink:href="#DejaVuSans-45" x="140.966797"/>
      </g>
     </g>
    </g>
    <g id="xtick_17">
     <g id="line2d_17">
      <g>
       <use xlink:href="#m34e1129dd2" x="296.020661" y="320.4" style="stroke: #000000; stroke-width: 0.8"/>
      </g>
     </g>
     <g id="text_17">
      <!-- BKG -->
      <g transform="translate(283.636005 349.530541) rotate(-60) scale(0.1 -0.1)">
       <use xlink:href="#DejaVuSans-42"/>
       <use xlink:href="#DejaVuSans-4b" x="68.603516"/>
       <use xlink:href="#DejaVuSans-47" x="134.179688"/>
      </g>
     </g>
    </g>
    <g id="xtick_18">
     <g id="line2d_18">
      <g>
       <use xlink:href="#m34e1129dd2" x="303.706612" y="320.4" style="stroke: #000000; stroke-width: 0.8"/>
      </g>
     </g>
     <g id="text_18">
      <!-- SMDS -->
      <g transform="translate(287.393049 356.335606) rotate(-60) scale(0.1 -0.1)">
       <use xlink:href="#DejaVuSans-53"/>
       <use xlink:href="#DejaVuSans-4d" x="63.476562"/>
       <use xlink:href="#DejaVuSans-44" x="149.755859"/>
       <use xlink:href="#DejaVuSans-53" x="226.757812"/>
      </g>
     </g>
    </g>
    <g id="xtick_19">
     <g id="line2d_19">
      <g>
       <use xlink:href="#m34e1129dd2" x="311.392562" y="320.4" style="stroke: #000000; stroke-width: 0.8"/>
      </g>
     </g>
     <g id="text_19">
      <!-- III -->
      <g transform="translate(305.1665 338.863544) rotate(-60) scale(0.1 -0.1)">
       <use xlink:href="#DejaVuSans-49"/>
       <use xlink:href="#DejaVuSans-49" x="29.492188"/>
       <use xlink:href="#DejaVuSans-49" x="58.984375"/>
      </g>
     </g>
    </g>
    <g id="xtick_20">
     <g id="line2d_20">
      <g>
       <use xlink:href="#m34e1129dd2" x="319.078512" y="320.4" style="stroke: #000000; stroke-width: 0.8"/>
      </g>
     </g>
     <g id="text_20">
      <!-- CTEC -->
      <g transform="translate(304.081356 354.055524) rotate(-60) scale(0.1 -0.1)">
       <use xlink:href="#DejaVuSans-43"/>
       <use xlink:href="#DejaVuSans-54" x="69.824219"/>
       <use xlink:href="#DejaVuSans-45" x="130.908203"/>
       <use xlink:href="#DejaVuSans-43" x="194.091797"/>
      </g>
     </g>
    </g>
    <g id="xtick_21">
     <g id="line2d_21">
      <g>
       <use xlink:href="#m34e1129dd2" x="326.764463" y="320.4" style="stroke: #000000; stroke-width: 0.8"/>
      </g>
     </g>
     <g id="text_21">
      <!-- HIK -->
      <g transform="translate(316.449338 345.946008) rotate(-60) scale(0.1 -0.1)">
       <use xlink:href="#DejaVuSans-48"/>
       <use xlink:href="#DejaVuSans-49" x="75.195312"/>
       <use xlink:href="#DejaVuSans-4b" x="104.6875"/>
      </g>
     </g>
    </g>
    <g id="xtick_22">
     <g id="line2d_22">
      <g>
       <use xlink:href="#m34e1129dd2" x="334.450413" y="320.4" style="stroke: #000000; stroke-width: 0.8"/>
      </g>
     </g>
     <g id="text_22">
      <!-- SN -->
      <g transform="translate(325.734507 343.176079) rotate(-60) scale(0.1 -0.1)">
       <use xlink:href="#DejaVuSans-53"/>
       <use xlink:href="#DejaVuSans-4e" x="63.476562"/>
      </g>
     </g>
    </g>
    <g id="xtick_23">
     <g id="line2d_23">
      <g>
       <use xlink:href="#m34e1129dd2" x="342.136364" y="320.4" style="stroke: #000000; stroke-width: 0.8"/>
      </g>
     </g>
     <g id="text_23">
      <!-- BDEV -->
      <g transform="translate(326.475145 355.205714) rotate(-60) scale(0.1 -0.1)">
       <use xlink:href="#DejaVuSans-42"/>
       <use xlink:href="#DejaVuSans-44" x="68.603516"/>
       <use xlink:href="#DejaVuSans-45" x="145.605469"/>
       <use xlink:href="#DejaVuSans-56" x="208.789062"/>
      </g>
     </g>
    </g>
    <g id="xtick_24">
     <g id="line2d_24">
      <g>
       <use xlink:href="#m34e1129dd2" x="349.822314" y="320.4" style="stroke: #000000; stroke-width: 0.8"/>
      </g>
     </g>
     <g id="text_24">
      <!-- REL -->
      <g transform="translate(338.601721 347.514325) rotate(-60) scale(0.1 -0.1)">
       <use xlink:href="#DejaVuSans-52"/>
       <use xlink:href="#DejaVuSans-45" x="69.482422"/>
       <use xlink:href="#DejaVuSans-4c" x="132.666016"/>
      </g>
     </g>
    </g>
    <g id="xtick_25">
     <g id="line2d_25">
      <g>
       <use xlink:href="#m34e1129dd2" x="357.508264" y="320.4" style="stroke: #000000; stroke-width: 0.8"/>
      </g>
     </g>
     <g id="text_25">
      <!-- SGRO -->
      <g transform="translate(341.248609 356.242238) rotate(-60) scale(0.1 -0.1)">
       <use xlink:href="#DejaVuSans-53"/>
       <use xlink:href="#DejaVuSans-47" x="63.476562"/>
       <use xlink:href="#DejaVuSans-52" x="140.966797"/>
       <use xlink:href="#DejaVuSans-4f" x="210.449219"/>
      </g>
     </g>
    </g>
    <g id="xtick_26">
     <g id="line2d_26">
      <g>
       <use xlink:href="#m34e1129dd2" x="365.194215" y="320.4" style="stroke: #000000; stroke-width: 0.8"/>
      </g>
     </g>
     <g id="text_26">
      <!-- LSEG -->
      <g transform="translate(350.399403 353.705054) rotate(-60) scale(0.1 -0.1)">
       <use xlink:href="#DejaVuSans-4c"/>
       <use xlink:href="#DejaVuSans-53" x="55.712891"/>
       <use xlink:href="#DejaVuSans-45" x="119.189453"/>
       <use xlink:href="#DejaVuSans-47" x="182.373047"/>
      </g>
     </g>
    </g>
    <g id="xtick_27">
     <g id="line2d_27">
      <g>
       <use xlink:href="#m34e1129dd2" x="372.880165" y="320.4" style="stroke: #000000; stroke-width: 0.8"/>
      </g>
     </g>
     <g id="text_27">
      <!-- SPX -->
      <g transform="translate(361.465041 347.851263) rotate(-60) scale(0.1 -0.1)">
       <defs>
        <path id="DejaVuSans-58" d="M 403 4666 
L 1081 4666 
L 2241 2931 
L 3406 4666 
L 4084 4666 
L 2584 2425 
L 4184 0 
L 3506 0 
L 2194 1984 
L 872 0 
L 191 0 
L 1856 2491 
L 403 4666 
z
" transform="scale(0.015625)"/>
       </defs>
       <use xlink:href="#DejaVuSans-53"/>
       <use xlink:href="#DejaVuSans-50" x="63.476562"/>
       <use xlink:href="#DejaVuSans-58" x="123.779297"/>
      </g>
     </g>
    </g>
    <g id="xtick_28">
     <g id="line2d_28">
      <g>
       <use xlink:href="#m34e1129dd2" x="380.566116" y="320.4" style="stroke: #000000; stroke-width: 0.8"/>
      </g>
     </g>
     <g id="text_28">
      <!-- AZN -->
      <g transform="translate(368.179116 349.5346) rotate(-60) scale(0.1 -0.1)">
       <defs>
        <path id="DejaVuSans-5a" d="M 359 4666 
L 4025 4666 
L 4025 4184 
L 1075 531 
L 4097 531 
L 4097 0 
L 288 0 
L 288 481 
L 3238 4134 
L 359 4134 
L 359 4666 
z
" transform="scale(0.015625)"/>
       </defs>
       <use xlink:href="#DejaVuSans-41"/>
       <use xlink:href="#DejaVuSans-5a" x="68.408203"/>
       <use xlink:href="#DejaVuSans-4e" x="136.914062"/>
      </g>
     </g>
    </g>
    <g id="xtick_29">
     <g id="line2d_29">
      <g>
       <use xlink:href="#m34e1129dd2" x="388.252066" y="320.4" style="stroke: #000000; stroke-width: 0.8"/>
      </g>
     </g>
     <g id="text_29">
      <!-- ITRK -->
      <g transform="translate(375.168973 350.74027) rotate(-60) scale(0.1 -0.1)">
       <use xlink:href="#DejaVuSans-49"/>
       <use xlink:href="#DejaVuSans-54" x="29.492188"/>
       <use xlink:href="#DejaVuSans-52" x="90.576172"/>
       <use xlink:href="#DejaVuSans-4b" x="160.058594"/>
      </g>
     </g>
    </g>
    <g id="xtick_30">
     <g id="line2d_30">
      <g>
       <use xlink:href="#m34e1129dd2" x="395.938017" y="320.4" style="stroke: #000000; stroke-width: 0.8"/>
      </g>
     </g>
     <g id="text_30">
      <!-- STJ -->
      <g transform="translate(386.433829 344.541423) rotate(-60) scale(0.1 -0.1)">
       <defs>
        <path id="DejaVuSans-4a" d="M 628 4666 
L 1259 4666 
L 1259 325 
Q 1259 -519 939 -900 
Q 619 -1281 -91 -1281 
L -331 -1281 
L -331 -750 
L -134 -750 
Q 284 -750 456 -515 
Q 628 -281 628 325 
L 628 4666 
z
" transform="scale(0.015625)"/>
       </defs>
       <use xlink:href="#DejaVuSans-53"/>
       <use xlink:href="#DejaVuSans-54" x="63.476562"/>
       <use xlink:href="#DejaVuSans-4a" x="124.560547"/>
      </g>
     </g>
    </g>
    <g id="xtick_31">
     <g id="line2d_31">
      <g>
       <use xlink:href="#m34e1129dd2" x="403.623967" y="320.4" style="stroke: #000000; stroke-width: 0.8"/>
      </g>
     </g>
     <g id="text_31">
      <!-- AHT -->
      <g transform="translate(391.58853 348.925676) rotate(-60) scale(0.1 -0.1)">
       <use xlink:href="#DejaVuSans-41"/>
       <use xlink:href="#DejaVuSans-48" x="68.408203"/>
       <use xlink:href="#DejaVuSans-54" x="143.603516"/>
      </g>
     </g>
    </g>
    <g id="xtick_32">
     <g id="line2d_32">
      <g>
       <use xlink:href="#m34e1129dd2" x="411.309917" y="320.4" style="stroke: #000000; stroke-width: 0.8"/>
      </g>
     </g>
     <g id="text_32">
      <!-- SMT -->
      <g transform="translate(398.966668 349.458823) rotate(-60) scale(0.1 -0.1)">
       <use xlink:href="#DejaVuSans-53"/>
       <use xlink:href="#DejaVuSans-4d" x="63.476562"/>
       <use xlink:href="#DejaVuSans-54" x="149.755859"/>
      </g>
     </g>
    </g>
    <g id="xtick_33">
     <g id="line2d_33">
      <g>
       <use xlink:href="#m34e1129dd2" x="418.995868" y="320.4" style="stroke: #000000; stroke-width: 0.8"/>
      </g>
     </g>
     <g id="text_33">
      <!-- BATS -->
      <g transform="translate(404.503399 353.181379) rotate(-60) scale(0.1 -0.1)">
       <use xlink:href="#DejaVuSans-42"/>
       <use xlink:href="#DejaVuSans-41" x="68.603516"/>
       <use xlink:href="#DejaVuSans-54" x="129.261719"/>
       <use xlink:href="#DejaVuSans-53" x="190.345703"/>
      </g>
     </g>
    </g>
    <g id="xtick_34">
     <g id="line2d_34">
      <g>
       <use xlink:href="#m34e1129dd2" x="426.681818" y="320.4" style="stroke: #000000; stroke-width: 0.8"/>
      </g>
     </g>
     <g id="text_34">
      <!-- AAF -->
      <g transform="translate(415.02685 348.266685) rotate(-60) scale(0.1 -0.1)">
       <defs>
        <path id="DejaVuSans-46" d="M 628 4666 
L 3309 4666 
L 3309 4134 
L 1259 4134 
L 1259 2759 
L 3109 2759 
L 3109 2228 
L 1259 2228 
L 1259 0 
L 628 0 
L 628 4666 
z
" transform="scale(0.015625)"/>
       </defs>
       <use xlink:href="#DejaVuSans-41"/>
       <use xlink:href="#DejaVuSans-41" x="71.158203"/>
       <use xlink:href="#DejaVuSans-46" x="139.566406"/>
      </g>
     </g>
    </g>
    <g id="xtick_35">
     <g id="line2d_35">
      <g>
       <use xlink:href="#m34e1129dd2" x="434.367769" y="320.4" style="stroke: #000000; stroke-width: 0.8"/>
      </g>
     </g>
     <g id="text_35">
      <!-- ABF -->
      <g transform="translate(422.840144 348.046119) rotate(-60) scale(0.1 -0.1)">
       <use xlink:href="#DejaVuSans-41"/>
       <use xlink:href="#DejaVuSans-42" x="68.408203"/>
       <use xlink:href="#DejaVuSans-46" x="137.011719"/>
      </g>
     </g>
    </g>
    <g id="xtick_36">
     <g id="line2d_36">
      <g>
       <use xlink:href="#m34e1129dd2" x="442.053719" y="320.4" style="stroke: #000000; stroke-width: 0.8"/>
      </g>
     </g>
     <g id="text_36">
      <!-- GLEN -->
      <g transform="translate(426.692501 354.686098) rotate(-60) scale(0.1 -0.1)">
       <use xlink:href="#DejaVuSans-47"/>
       <use xlink:href="#DejaVuSans-4c" x="77.490234"/>
       <use xlink:href="#DejaVuSans-45" x="133.203125"/>
       <use xlink:href="#DejaVuSans-4e" x="196.386719"/>
      </g>
     </g>
    </g>
    <g id="xtick_37">
     <g id="line2d_37">
      <g>
       <use xlink:href="#m34e1129dd2" x="449.739669" y="320.4" style="stroke: #000000; stroke-width: 0.8"/>
      </g>
     </g>
     <g id="text_37">
      <!-- AV -->
      <g transform="translate(441.416732 342.495438) rotate(-60) scale(0.1 -0.1)">
       <use xlink:href="#DejaVuSans-41"/>
       <use xlink:href="#DejaVuSans-56" x="62.033203"/>
      </g>
     </g>
    </g>
    <g id="xtick_38">
     <g id="line2d_38">
      <g>
       <use xlink:href="#m34e1129dd2" x="457.42562" y="320.4" style="stroke: #000000; stroke-width: 0.8"/>
      </g>
     </g>
     <g id="text_38">
      <!-- SDR -->
      <g transform="translate(445.12612 349.383046) rotate(-60) scale(0.1 -0.1)">
       <use xlink:href="#DejaVuSans-53"/>
       <use xlink:href="#DejaVuSans-44" x="63.476562"/>
       <use xlink:href="#DejaVuSans-52" x="140.478516"/>
      </g>
     </g>
    </g>
    <g id="xtick_39">
     <g id="line2d_39">
      <g>
       <use xlink:href="#m34e1129dd2" x="465.11157" y="320.4" style="stroke: #000000; stroke-width: 0.8"/>
      </g>
     </g>
     <g id="text_39">
      <!-- EXPN -->
      <g transform="translate(449.970664 354.304506) rotate(-60) scale(0.1 -0.1)">
       <use xlink:href="#DejaVuSans-45"/>
       <use xlink:href="#DejaVuSans-58" x="63.183594"/>
       <use xlink:href="#DejaVuSans-50" x="131.689453"/>
       <use xlink:href="#DejaVuSans-4e" x="191.992188"/>
      </g>
     </g>
    </g>
    <g id="xtick_40">
     <g id="line2d_40">
      <g>
       <use xlink:href="#m34e1129dd2" x="472.797521" y="320.4" style="stroke: #000000; stroke-width: 0.8"/>
      </g>
     </g>
     <g id="text_40">
      <!-- ANTO -->
      <g transform="translate(456.845677 355.709091) rotate(-60) scale(0.1 -0.1)">
       <use xlink:href="#DejaVuSans-41"/>
       <use xlink:href="#DejaVuSans-4e" x="68.408203"/>
       <use xlink:href="#DejaVuSans-54" x="143.212891"/>
       <use xlink:href="#DejaVuSans-4f" x="204.296875"/>
      </g>
     </g>
    </g>
    <g id="xtick_41">
     <g id="line2d_41">
      <g>
       <use xlink:href="#m34e1129dd2" x="480.483471" y="320.4" style="stroke: #000000; stroke-width: 0.8"/>
      </g>
     </g>
     <g id="text_41">
      <!-- UU -->
      <g transform="translate(471.363659 343.875666) rotate(-60) scale(0.1 -0.1)">
       <use xlink:href="#DejaVuSans-55"/>
       <use xlink:href="#DejaVuSans-55" x="73.193359"/>
      </g>
     </g>
    </g>
    <g id="xtick_42">
     <g id="line2d_42">
      <g>
       <use xlink:href="#m34e1129dd2" x="488.169421" y="320.4" style="stroke: #000000; stroke-width: 0.8"/>
      </g>
     </g>
     <g id="text_42">
      <!-- PRU -->
      <g transform="translate(476.219922 348.776828) rotate(-60) scale(0.1 -0.1)">
       <use xlink:href="#DejaVuSans-50"/>
       <use xlink:href="#DejaVuSans-52" x="60.302734"/>
       <use xlink:href="#DejaVuSans-55" x="129.785156"/>
      </g>
     </g>
    </g>
    <g id="xtick_43">
     <g id="line2d_43">
      <g>
       <use xlink:href="#m34e1129dd2" x="495.855372" y="320.4" style="stroke: #000000; stroke-width: 0.8"/>
      </g>
     </g>
     <g id="text_43">
      <!-- WPP -->
      <g transform="translate(483.080872 350.20577) rotate(-60) scale(0.1 -0.1)">
       <defs>
        <path id="DejaVuSans-57" d="M 213 4666 
L 850 4666 
L 1831 722 
L 2809 4666 
L 3519 4666 
L 4500 722 
L 5478 4666 
L 6119 4666 
L 4947 0 
L 4153 0 
L 3169 4050 
L 2175 0 
L 1381 0 
L 213 4666 
z
" transform="scale(0.015625)"/>
       </defs>
       <use xlink:href="#DejaVuSans-57"/>
       <use xlink:href="#DejaVuSans-50" x="98.876953"/>
       <use xlink:href="#DejaVuSans-50" x="159.179688"/>
      </g>
     </g>
    </g>
    <g id="xtick_44">
     <g id="line2d_44">
      <g>
       <use xlink:href="#m34e1129dd2" x="503.541322" y="320.4" style="stroke: #000000; stroke-width: 0.8"/>
      </g>
     </g>
     <g id="text_44">
      <!-- BA -->
      <g transform="translate(494.889479 343.06512) rotate(-60) scale(0.1 -0.1)">
       <use xlink:href="#DejaVuSans-42"/>
       <use xlink:href="#DejaVuSans-41" x="68.603516"/>
      </g>
     </g>
    </g>
    <g id="xtick_45">
     <g id="line2d_45">
      <g>
       <use xlink:href="#m34e1129dd2" x="511.227273" y="320.4" style="stroke: #000000; stroke-width: 0.8"/>
      </g>
     </g>
     <g id="text_45">
      <!-- BARC -->
      <g transform="translate(495.859804 354.696924) rotate(-60) scale(0.1 -0.1)">
       <use xlink:href="#DejaVuSans-42"/>
       <use xlink:href="#DejaVuSans-41" x="68.603516"/>
       <use xlink:href="#DejaVuSans-52" x="137.011719"/>
       <use xlink:href="#DejaVuSans-43" x="201.494141"/>
      </g>
     </g>
    </g>
    <g id="xtick_46">
     <g id="line2d_46">
      <g>
       <use xlink:href="#m34e1129dd2" x="518.913223" y="320.4" style="stroke: #000000; stroke-width: 0.8"/>
      </g>
     </g>
     <g id="text_46">
      <!-- DPH -->
      <g transform="translate(506.487161 349.602259) rotate(-60) scale(0.1 -0.1)">
       <use xlink:href="#DejaVuSans-44"/>
       <use xlink:href="#DejaVuSans-50" x="77.001953"/>
       <use xlink:href="#DejaVuSans-48" x="137.304688"/>
      </g>
     </g>
    </g>
    <g id="xtick_47">
     <g id="line2d_47">
      <g>
       <use xlink:href="#m34e1129dd2" x="526.599174" y="320.4" style="stroke: #000000; stroke-width: 0.8"/>
      </g>
     </g>
     <g id="text_47">
      <!-- HL -->
      <g transform="translate(518.252018 342.537386) rotate(-60) scale(0.1 -0.1)">
       <use xlink:href="#DejaVuSans-48"/>
       <use xlink:href="#DejaVuSans-4c" x="75.195312"/>
      </g>
     </g>
    </g>
    <g id="xtick_48">
     <g id="line2d_48">
      <g>
       <use xlink:href="#m34e1129dd2" x="534.285124" y="320.4" style="stroke: #000000; stroke-width: 0.8"/>
      </g>
     </g>
     <g id="text_48">
      <!-- NG -->
      <g transform="translate(524.869218 344.388515) rotate(-60) scale(0.1 -0.1)">
       <use xlink:href="#DejaVuSans-4e"/>
       <use xlink:href="#DejaVuSans-47" x="74.804688"/>
      </g>
     </g>
    </g>
    <g id="xtick_49">
     <g id="line2d_49">
      <g>
       <use xlink:href="#m34e1129dd2" x="541.971074" y="320.4" style="stroke: #000000; stroke-width: 0.8"/>
      </g>
     </g>
     <g id="text_49">
      <!-- CPG -->
      <g transform="translate(529.789543 349.178718) rotate(-60) scale(0.1 -0.1)">
       <use xlink:href="#DejaVuSans-43"/>
       <use xlink:href="#DejaVuSans-50" x="69.824219"/>
       <use xlink:href="#DejaVuSans-47" x="130.126953"/>
      </g>
     </g>
    </g>
    <g id="xtick_50">
     <g id="line2d_50">
      <g>
       <use xlink:href="#m34e1129dd2" x="549.657025" y="320.4" style="stroke: #000000; stroke-width: 0.8"/>
      </g>
     </g>
     <g id="text_50">
      <!-- CNA -->
      <g transform="translate(537.203619 349.649619) rotate(-60) scale(0.1 -0.1)">
       <use xlink:href="#DejaVuSans-43"/>
       <use xlink:href="#DejaVuSans-4e" x="69.824219"/>
       <use xlink:href="#DejaVuSans-41" x="144.628906"/>
      </g>
     </g>
    </g>
    <g id="xtick_51">
     <g id="line2d_51">
      <g>
       <use xlink:href="#m34e1129dd2" x="557.342975" y="320.4" style="stroke: #000000; stroke-width: 0.8"/>
      </g>
     </g>
     <g id="text_51">
      <!-- FLTR -->
      <g transform="translate(544.039569 351.121863) rotate(-60) scale(0.1 -0.1)">
       <use xlink:href="#DejaVuSans-46"/>
       <use xlink:href="#DejaVuSans-4c" x="57.519531"/>
       <use xlink:href="#DejaVuSans-54" x="99.482422"/>
       <use xlink:href="#DejaVuSans-52" x="160.566406"/>
      </g>
     </g>
    </g>
    <g id="xtick_52">
     <g id="line2d_52">
      <g>
       <use xlink:href="#m34e1129dd2" x="565.028926" y="320.4" style="stroke: #000000; stroke-width: 0.8"/>
      </g>
     </g>
     <g id="text_52">
      <!-- SVT -->
      <g transform="translate(553.579426 347.910803) rotate(-60) scale(0.1 -0.1)">
       <use xlink:href="#DejaVuSans-53"/>
       <use xlink:href="#DejaVuSans-56" x="63.476562"/>
       <use xlink:href="#DejaVuSans-54" x="131.884766"/>
      </g>
     </g>
    </g>
    <g id="xtick_53">
     <g id="line2d_53">
      <g>
       <use xlink:href="#m34e1129dd2" x="572.714876" y="320.4" style="stroke: #000000; stroke-width: 0.8"/>
      </g>
     </g>
     <g id="text_53">
      <!-- RIO -->
      <g transform="translate(562.028658 346.588761) rotate(-60) scale(0.1 -0.1)">
       <use xlink:href="#DejaVuSans-52"/>
       <use xlink:href="#DejaVuSans-49" x="69.482422"/>
       <use xlink:href="#DejaVuSans-4f" x="98.974609"/>
      </g>
     </g>
    </g>
    <g id="xtick_54">
     <g id="line2d_54">
      <g>
       <use xlink:href="#m34e1129dd2" x="580.400826" y="320.4" style="stroke: #000000; stroke-width: 0.8"/>
      </g>
     </g>
     <g id="text_54">
      <!-- PSH -->
      <g transform="translate(568.650545 348.431771) rotate(-60) scale(0.1 -0.1)">
       <use xlink:href="#DejaVuSans-50"/>
       <use xlink:href="#DejaVuSans-53" x="60.302734"/>
       <use xlink:href="#DejaVuSans-48" x="123.779297"/>
      </g>
     </g>
    </g>
    <g id="xtick_55">
     <g id="line2d_55">
      <g>
       <use xlink:href="#m34e1129dd2" x="588.086777" y="320.4" style="stroke: #000000; stroke-width: 0.8"/>
      </g>
     </g>
     <g id="text_55">
      <!-- RMV -->
      <g transform="translate(575.077121 350.613073) rotate(-60) scale(0.1 -0.1)">
       <use xlink:href="#DejaVuSans-52"/>
       <use xlink:href="#DejaVuSans-4d" x="69.482422"/>
       <use xlink:href="#DejaVuSans-56" x="155.761719"/>
      </g>
     </g>
    </g>
    <g id="xtick_56">
     <g id="line2d_56">
      <g>
       <use xlink:href="#m34e1129dd2" x="595.772727" y="320.4" style="stroke: #000000; stroke-width: 0.8"/>
      </g>
     </g>
     <g id="text_56">
      <!-- WEIR -->
      <g transform="translate(580.919321 353.806541) rotate(-60) scale(0.1 -0.1)">
       <use xlink:href="#DejaVuSans-57"/>
       <use xlink:href="#DejaVuSans-45" x="98.876953"/>
       <use xlink:href="#DejaVuSans-49" x="162.060547"/>
       <use xlink:href="#DejaVuSans-52" x="191.552734"/>
      </g>
     </g>
    </g>
    <g id="xtick_57">
     <g id="line2d_57">
      <g>
       <use xlink:href="#m34e1129dd2" x="603.458678" y="320.4" style="stroke: #000000; stroke-width: 0.8"/>
      </g>
     </g>
     <g id="text_57">
      <!-- SBRY -->
      <g transform="translate(588.843553 353.393826) rotate(-60) scale(0.1 -0.1)">
       <defs>
        <path id="DejaVuSans-59" d="M -13 4666 
L 666 4666 
L 1959 2747 
L 3244 4666 
L 3922 4666 
L 2272 2222 
L 2272 0 
L 1638 0 
L 1638 2222 
L -13 4666 
z
" transform="scale(0.015625)"/>
       </defs>
       <use xlink:href="#DejaVuSans-53"/>
       <use xlink:href="#DejaVuSans-42" x="63.476562"/>
       <use xlink:href="#DejaVuSans-52" x="132.080078"/>
       <use xlink:href="#DejaVuSans-59" x="195.1875"/>
      </g>
     </g>
    </g>
    <g id="xtick_58">
     <g id="line2d_58">
      <g>
       <use xlink:href="#m34e1129dd2" x="611.144628" y="320.4" style="stroke: #000000; stroke-width: 0.8"/>
      </g>
     </g>
     <g id="text_58">
      <!-- NXT -->
      <g transform="translate(599.211535 348.748412) rotate(-60) scale(0.1 -0.1)">
       <use xlink:href="#DejaVuSans-4e"/>
       <use xlink:href="#DejaVuSans-58" x="74.804688"/>
       <use xlink:href="#DejaVuSans-54" x="141.560547"/>
      </g>
     </g>
    </g>
    <g id="xtick_59">
     <g id="line2d_59">
      <g>
       <use xlink:href="#m34e1129dd2" x="618.830579" y="320.4" style="stroke: #000000; stroke-width: 0.8"/>
      </g>
     </g>
     <g id="text_59">
      <!-- TW -->
      <g transform="translate(609.03186 345.051566) rotate(-60) scale(0.1 -0.1)">
       <use xlink:href="#DejaVuSans-54"/>
       <use xlink:href="#DejaVuSans-57" x="61.083984"/>
      </g>
     </g>
    </g>
    <g id="xtick_60">
     <g id="line2d_60">
      <g>
       <use xlink:href="#m34e1129dd2" x="626.516529" y="320.4" style="stroke: #000000; stroke-width: 0.8"/>
      </g>
     </g>
     <g id="text_60">
      <!-- TSCO -->
      <g transform="translate(611.059998 354.851184) rotate(-60) scale(0.1 -0.1)">
       <use xlink:href="#DejaVuSans-54"/>
       <use xlink:href="#DejaVuSans-53" x="61.083984"/>
       <use xlink:href="#DejaVuSans-43" x="124.560547"/>
       <use xlink:href="#DejaVuSans-4f" x="194.384766"/>
      </g>
     </g>
    </g>
    <g id="xtick_61">
     <g id="line2d_61">
      <g>
       <use xlink:href="#m34e1129dd2" x="634.202479" y="320.4" style="stroke: #000000; stroke-width: 0.8"/>
      </g>
     </g>
     <g id="text_61">
      <!-- BT-A -->
      <g transform="translate(621.261573 350.493994) rotate(-60) scale(0.1 -0.1)">
       <defs>
        <path id="DejaVuSans-2d" d="M 313 2009 
L 1997 2009 
L 1997 1497 
L 313 1497 
L 313 2009 
z
" transform="scale(0.015625)"/>
       </defs>
       <use xlink:href="#DejaVuSans-42"/>
       <use xlink:href="#DejaVuSans-54" x="68.603516"/>
       <use xlink:href="#DejaVuSans-2d" x="120.5625"/>
       <use xlink:href="#DejaVuSans-41" x="154.396484"/>
      </g>
     </g>
    </g>
    <g id="xtick_62">
     <g id="line2d_62">
      <g>
       <use xlink:href="#m34e1129dd2" x="641.88843" y="320.4" style="stroke: #000000; stroke-width: 0.8"/>
      </g>
     </g>
     <g id="text_62">
      <!-- ADM -->
      <g transform="translate(628.502993 351.263945) rotate(-60) scale(0.1 -0.1)">
       <use xlink:href="#DejaVuSans-41"/>
       <use xlink:href="#DejaVuSans-44" x="68.408203"/>
       <use xlink:href="#DejaVuSans-4d" x="145.410156"/>
      </g>
     </g>
    </g>
    <g id="xtick_63">
     <g id="line2d_63">
      <g>
       <use xlink:href="#m34e1129dd2" x="649.57438" y="320.4" style="stroke: #000000; stroke-width: 0.8"/>
      </g>
     </g>
     <g id="text_63">
      <!-- CCH -->
      <g transform="translate(637.030349 349.806586) rotate(-60) scale(0.1 -0.1)">
       <use xlink:href="#DejaVuSans-43"/>
       <use xlink:href="#DejaVuSans-43" x="69.824219"/>
       <use xlink:href="#DejaVuSans-48" x="139.648438"/>
      </g>
     </g>
    </g>
    <g id="xtick_64">
     <g id="line2d_64">
      <g>
       <use xlink:href="#m34e1129dd2" x="657.260331" y="320.4" style="stroke: #000000; stroke-width: 0.8"/>
      </g>
     </g>
     <g id="text_64">
      <!-- RKT -->
      <g transform="translate(646.039737 347.514325) rotate(-60) scale(0.1 -0.1)">
       <use xlink:href="#DejaVuSans-52"/>
       <use xlink:href="#DejaVuSans-4b" x="69.482422"/>
       <use xlink:href="#DejaVuSans-54" x="127.308594"/>
      </g>
     </g>
    </g>
    <g id="xtick_65">
     <g id="line2d_65">
      <g>
       <use xlink:href="#m34e1129dd2" x="664.946281" y="320.4" style="stroke: #000000; stroke-width: 0.8"/>
      </g>
     </g>
     <g id="text_65">
      <!-- IMI -->
      <g transform="translate(655.881156 343.780944) rotate(-60) scale(0.1 -0.1)">
       <use xlink:href="#DejaVuSans-49"/>
       <use xlink:href="#DejaVuSans-4d" x="29.492188"/>
       <use xlink:href="#DejaVuSans-49" x="115.771484"/>
      </g>
     </g>
    </g>
    <g id="xtick_66">
     <g id="line2d_66">
      <g>
       <use xlink:href="#m34e1129dd2" x="672.632231" y="320.4" style="stroke: #000000; stroke-width: 0.8"/>
      </g>
     </g>
     <g id="text_66">
      <!-- VOD -->
      <g transform="translate(659.712419 350.457459) rotate(-60) scale(0.1 -0.1)">
       <use xlink:href="#DejaVuSans-56"/>
       <use xlink:href="#DejaVuSans-4f" x="66.658203"/>
       <use xlink:href="#DejaVuSans-44" x="145.369141"/>
      </g>
     </g>
    </g>
    <g id="xtick_67">
     <g id="line2d_67">
      <g>
       <use xlink:href="#m34e1129dd2" x="680.318182" y="320.4" style="stroke: #000000; stroke-width: 0.8"/>
      </g>
     </g>
     <g id="text_67">
      <!-- IHG -->
      <g transform="translate(669.407745 346.977119) rotate(-60) scale(0.1 -0.1)">
       <use xlink:href="#DejaVuSans-49"/>
       <use xlink:href="#DejaVuSans-48" x="29.492188"/>
       <use xlink:href="#DejaVuSans-47" x="104.6875"/>
      </g>
     </g>
    </g>
    <g id="xtick_68">
     <g id="line2d_68">
      <g>
       <use xlink:href="#m34e1129dd2" x="688.004132" y="320.4" style="stroke: #000000; stroke-width: 0.8"/>
      </g>
     </g>
     <g id="text_68">
      <!-- PHNX -->
      <g transform="translate(672.262445 355.34509) rotate(-60) scale(0.1 -0.1)">
       <use xlink:href="#DejaVuSans-50"/>
       <use xlink:href="#DejaVuSans-48" x="60.302734"/>
       <use xlink:href="#DejaVuSans-4e" x="135.498047"/>
       <use xlink:href="#DejaVuSans-58" x="210.302734"/>
      </g>
     </g>
    </g>
    <g id="xtick_69">
     <g id="line2d_69">
      <g>
       <use xlink:href="#m34e1129dd2" x="695.690083" y="320.4" style="stroke: #000000; stroke-width: 0.8"/>
      </g>
     </g>
     <g id="text_69">
      <!-- FCIT -->
      <g transform="translate(682.992927 350.071807) rotate(-60) scale(0.1 -0.1)">
       <use xlink:href="#DejaVuSans-46"/>
       <use xlink:href="#DejaVuSans-43" x="57.519531"/>
       <use xlink:href="#DejaVuSans-49" x="127.34375"/>
       <use xlink:href="#DejaVuSans-54" x="156.835938"/>
      </g>
     </g>
    </g>
    <g id="xtick_70">
     <g id="line2d_70">
      <g>
       <use xlink:href="#m34e1129dd2" x="703.376033" y="320.4" style="stroke: #000000; stroke-width: 0.8"/>
      </g>
     </g>
     <g id="text_70">
      <!-- LLOY -->
      <g transform="translate(689.469502 352.166506) rotate(-60) scale(0.1 -0.1)">
       <use xlink:href="#DejaVuSans-4c"/>
       <use xlink:href="#DejaVuSans-4c" x="55.712891"/>
       <use xlink:href="#DejaVuSans-4f" x="107.800781"/>
       <use xlink:href="#DejaVuSans-59" x="181.011719"/>
      </g>
     </g>
    </g>
    <g id="xtick_71">
     <g id="line2d_71">
      <g>
       <use xlink:href="#m34e1129dd2" x="711.061983" y="320.4" style="stroke: #000000; stroke-width: 0.8"/>
      </g>
     </g>
     <g id="text_71">
      <!-- FRES -->
      <g transform="translate(696.577328 353.167848) rotate(-60) scale(0.1 -0.1)">
       <use xlink:href="#DejaVuSans-46"/>
       <use xlink:href="#DejaVuSans-52" x="57.519531"/>
       <use xlink:href="#DejaVuSans-45" x="127.001953"/>
       <use xlink:href="#DejaVuSans-53" x="190.185547"/>
      </g>
     </g>
    </g>
    <g id="xtick_72">
     <g id="line2d_72">
      <g>
       <use xlink:href="#m34e1129dd2" x="718.747934" y="320.4" style="stroke: #000000; stroke-width: 0.8"/>
      </g>
     </g>
     <g id="text_72">
      <!-- RS1 -->
      <g transform="translate(707.117184 348.224737) rotate(-60) scale(0.1 -0.1)">
       <defs>
        <path id="DejaVuSans-31" d="M 794 531 
L 1825 531 
L 1825 4091 
L 703 3866 
L 703 4441 
L 1819 4666 
L 2450 4666 
L 2450 531 
L 3481 531 
L 3481 0 
L 794 0 
L 794 531 
z
" transform="scale(0.015625)"/>
       </defs>
       <use xlink:href="#DejaVuSans-52"/>
       <use xlink:href="#DejaVuSans-53" x="69.482422"/>
       <use xlink:href="#DejaVuSans-31" x="132.958984"/>
      </g>
     </g>
    </g>
    <g id="xtick_73">
     <g id="line2d_73">
      <g>
       <use xlink:href="#m34e1129dd2" x="726.433884" y="320.4" style="stroke: #000000; stroke-width: 0.8"/>
      </g>
     </g>
     <g id="text_73">
      <!-- MRO -->
      <g transform="translate(712.908603 351.506161) rotate(-60) scale(0.1 -0.1)">
       <use xlink:href="#DejaVuSans-4d"/>
       <use xlink:href="#DejaVuSans-52" x="86.279297"/>
       <use xlink:href="#DejaVuSans-4f" x="155.761719"/>
      </g>
     </g>
    </g>
    <g id="xtick_74">
     <g id="line2d_74">
      <g>
       <use xlink:href="#m34e1129dd2" x="734.119835" y="320.4" style="stroke: #000000; stroke-width: 0.8"/>
      </g>
     </g>
     <g id="text_74">
      <!-- BRBY -->
      <g transform="translate(719.20471 353.913441) rotate(-60) scale(0.1 -0.1)">
       <use xlink:href="#DejaVuSans-42"/>
       <use xlink:href="#DejaVuSans-52" x="68.603516"/>
       <use xlink:href="#DejaVuSans-42" x="138.085938"/>
       <use xlink:href="#DejaVuSans-59" x="201.189453"/>
      </g>
     </g>
    </g>
    <g id="xtick_75">
     <g id="line2d_75">
      <g>
       <use xlink:href="#m34e1129dd2" x="741.805785" y="320.4" style="stroke: #000000; stroke-width: 0.8"/>
      </g>
     </g>
     <g id="text_75">
      <!-- IMB -->
      <g transform="translate(730.785192 347.167915) rotate(-60) scale(0.1 -0.1)">
       <use xlink:href="#DejaVuSans-49"/>
       <use xlink:href="#DejaVuSans-4d" x="29.492188"/>
       <use xlink:href="#DejaVuSans-42" x="115.771484"/>
      </g>
     </g>
    </g>
    <g id="xtick_76">
     <g id="line2d_76">
      <g>
       <use xlink:href="#m34e1129dd2" x="749.491736" y="320.4" style="stroke: #000000; stroke-width: 0.8"/>
      </g>
     </g>
     <g id="text_76">
      <!-- BME -->
      <g transform="translate(736.786767 350.085338) rotate(-60) scale(0.1 -0.1)">
       <use xlink:href="#DejaVuSans-42"/>
       <use xlink:href="#DejaVuSans-4d" x="68.603516"/>
       <use xlink:href="#DejaVuSans-45" x="154.882812"/>
      </g>
     </g>
    </g>
    <g id="xtick_77">
     <g id="line2d_77">
      <g>
       <use xlink:href="#m34e1129dd2" x="757.177686" y="320.4" style="stroke: #000000; stroke-width: 0.8"/>
      </g>
     </g>
     <g id="text_77">
      <!-- AAL -->
      <g transform="translate(745.612561 348.111071) rotate(-60) scale(0.1 -0.1)">
       <use xlink:href="#DejaVuSans-41"/>
       <use xlink:href="#DejaVuSans-41" x="71.158203"/>
       <use xlink:href="#DejaVuSans-4c" x="139.566406"/>
      </g>
     </g>
    </g>
    <g id="xtick_78">
     <g id="line2d_78">
      <g>
       <use xlink:href="#m34e1129dd2" x="764.863636" y="320.4" style="stroke: #000000; stroke-width: 0.8"/>
      </g>
     </g>
     <g id="text_78">
      <!-- OCDO -->
      <g transform="translate(747.849293 357.549395) rotate(-60) scale(0.1 -0.1)">
       <use xlink:href="#DejaVuSans-4f"/>
       <use xlink:href="#DejaVuSans-43" x="78.710938"/>
       <use xlink:href="#DejaVuSans-44" x="148.535156"/>
       <use xlink:href="#DejaVuSans-4f" x="225.537109"/>
      </g>
     </g>
    </g>
    <g id="xtick_79">
     <g id="line2d_79">
      <g>
       <use xlink:href="#m34e1129dd2" x="772.549587" y="320.4" style="stroke: #000000; stroke-width: 0.8"/>
      </g>
     </g>
     <g id="text_79">
      <!-- LGEN -->
      <g transform="translate(757.188368 354.686098) rotate(-60) scale(0.1 -0.1)">
       <use xlink:href="#DejaVuSans-4c"/>
       <use xlink:href="#DejaVuSans-47" x="55.712891"/>
       <use xlink:href="#DejaVuSans-45" x="133.203125"/>
       <use xlink:href="#DejaVuSans-4e" x="196.386719"/>
      </g>
     </g>
    </g>
    <g id="xtick_80">
     <g id="line2d_80">
      <g>
       <use xlink:href="#m34e1129dd2" x="780.235537" y="320.4" style="stroke: #000000; stroke-width: 0.8"/>
      </g>
     </g>
     <g id="text_80">
      <!-- BEZ -->
      <g transform="translate(768.419631 348.545437) rotate(-60) scale(0.1 -0.1)">
       <use xlink:href="#DejaVuSans-42"/>
       <use xlink:href="#DejaVuSans-45" x="68.603516"/>
       <use xlink:href="#DejaVuSans-5a" x="131.787109"/>
      </g>
     </g>
    </g>
    <g id="xtick_81">
     <g id="line2d_81">
      <g>
       <use xlink:href="#m34e1129dd2" x="787.921488" y="320.4" style="stroke: #000000; stroke-width: 0.8"/>
      </g>
     </g>
     <g id="text_81">
      <!-- INF -->
      <g transform="translate(778.029019 345.213945) rotate(-60) scale(0.1 -0.1)">
       <use xlink:href="#DejaVuSans-49"/>
       <use xlink:href="#DejaVuSans-4e" x="29.492188"/>
       <use xlink:href="#DejaVuSans-46" x="104.296875"/>
      </g>
     </g>
    </g>
    <g id="xtick_82">
     <g id="line2d_82">
      <g>
       <use xlink:href="#m34e1129dd2" x="795.607438" y="320.4" style="stroke: #000000; stroke-width: 0.8"/>
      </g>
     </g>
     <g id="text_82">
      <!-- KGF -->
      <g transform="translate(783.77747 348.569794) rotate(-60) scale(0.1 -0.1)">
       <use xlink:href="#DejaVuSans-4b"/>
       <use xlink:href="#DejaVuSans-47" x="65.576172"/>
       <use xlink:href="#DejaVuSans-46" x="143.066406"/>
      </g>
     </g>
    </g>
    <g id="xtick_83">
     <g id="line2d_83">
      <g>
       <use xlink:href="#m34e1129dd2" x="803.293388" y="320.4" style="stroke: #000000; stroke-width: 0.8"/>
      </g>
     </g>
     <g id="text_83">
      <!-- HWDN -->
      <g transform="translate(785.197795 359.422175) rotate(-60) scale(0.1 -0.1)">
       <use xlink:href="#DejaVuSans-48"/>
       <use xlink:href="#DejaVuSans-57" x="75.195312"/>
       <use xlink:href="#DejaVuSans-44" x="174.072266"/>
       <use xlink:href="#DejaVuSans-4e" x="251.074219"/>
      </g>
     </g>
    </g>
    <g id="xtick_84">
     <g id="line2d_84">
      <g>
       <use xlink:href="#m34e1129dd2" x="810.979339" y="320.4" style="stroke: #000000; stroke-width: 0.8"/>
      </g>
     </g>
     <g id="text_84">
      <!-- MNG -->
      <g transform="translate(797.24937 351.86069) rotate(-60) scale(0.1 -0.1)">
       <use xlink:href="#DejaVuSans-4d"/>
       <use xlink:href="#DejaVuSans-4e" x="86.279297"/>
       <use xlink:href="#DejaVuSans-47" x="161.083984"/>
      </g>
     </g>
    </g>
    <g id="xtick_85">
     <g id="line2d_85">
      <g>
       <use xlink:href="#m34e1129dd2" x="818.665289" y="320.4" style="stroke: #000000; stroke-width: 0.8"/>
      </g>
     </g>
     <g id="text_85">
      <!-- SMIN -->
      <g transform="translate(804.160321 353.20303) rotate(-60) scale(0.1 -0.1)">
       <use xlink:href="#DejaVuSans-53"/>
       <use xlink:href="#DejaVuSans-4d" x="63.476562"/>
       <use xlink:href="#DejaVuSans-49" x="149.755859"/>
       <use xlink:href="#DejaVuSans-4e" x="179.248047"/>
      </g>
     </g>
    </g>
    <g id="xtick_86">
     <g id="line2d_86">
      <g>
       <use xlink:href="#m34e1129dd2" x="826.35124" y="320.4" style="stroke: #000000; stroke-width: 0.8"/>
      </g>
     </g>
     <g id="text_86">
      <!-- NWG -->
      <g transform="translate(811.991584 352.951341) rotate(-60) scale(0.1 -0.1)">
       <use xlink:href="#DejaVuSans-4e"/>
       <use xlink:href="#DejaVuSans-57" x="74.804688"/>
       <use xlink:href="#DejaVuSans-47" x="173.681641"/>
      </g>
     </g>
    </g>
    <g id="xtick_87">
     <g id="line2d_87">
      <g>
       <use xlink:href="#m34e1129dd2" x="834.03719" y="320.4" style="stroke: #000000; stroke-width: 0.8"/>
      </g>
     </g>
     <g id="text_87">
      <!-- LAND -->
      <g transform="translate(818.326753 355.290963) rotate(-60) scale(0.1 -0.1)">
       <use xlink:href="#DejaVuSans-4c"/>
       <use xlink:href="#DejaVuSans-41" x="57.962891"/>
       <use xlink:href="#DejaVuSans-4e" x="126.371094"/>
       <use xlink:href="#DejaVuSans-44" x="201.175781"/>
      </g>
     </g>
    </g>
    <g id="xtick_88">
     <g id="line2d_88">
      <g>
       <use xlink:href="#m34e1129dd2" x="841.72314" y="320.4" style="stroke: #000000; stroke-width: 0.8"/>
      </g>
     </g>
     <g id="text_88">
      <!-- BP -->
      <g transform="translate(833.476766 342.362827) rotate(-60) scale(0.1 -0.1)">
       <use xlink:href="#DejaVuSans-42"/>
       <use xlink:href="#DejaVuSans-50" x="68.603516"/>
      </g>
     </g>
    </g>
    <g id="xtick_89">
     <g id="line2d_89">
      <g>
       <use xlink:href="#m34e1129dd2" x="849.409091" y="320.4" style="stroke: #000000; stroke-width: 0.8"/>
      </g>
     </g>
     <g id="text_89">
      <!-- RR -->
      <g transform="translate(840.659591 343.234266) rotate(-60) scale(0.1 -0.1)">
       <use xlink:href="#DejaVuSans-52"/>
       <use xlink:href="#DejaVuSans-52" x="69.482422"/>
      </g>
     </g>
    </g>
    <g id="xtick_90">
     <g id="line2d_90">
      <g>
       <use xlink:href="#m34e1129dd2" x="857.095041" y="320.4" style="stroke: #000000; stroke-width: 0.8"/>
      </g>
     </g>
     <g id="text_90">
      <!-- DPLM -->
      <g transform="translate(841.329135 355.387038) rotate(-60) scale(0.1 -0.1)">
       <use xlink:href="#DejaVuSans-44"/>
       <use xlink:href="#DejaVuSans-50" x="77.001953"/>
       <use xlink:href="#DejaVuSans-4c" x="137.304688"/>
       <use xlink:href="#DejaVuSans-4d" x="193.017578"/>
      </g>
     </g>
    </g>
    <g id="xtick_91">
     <g id="line2d_91">
      <g>
       <use xlink:href="#m34e1129dd2" x="864.780992" y="320.4" style="stroke: #000000; stroke-width: 0.8"/>
      </g>
     </g>
     <g id="text_91">
      <!-- IAG -->
      <g transform="translate(854.297898 346.236938) rotate(-60) scale(0.1 -0.1)">
       <use xlink:href="#DejaVuSans-49"/>
       <use xlink:href="#DejaVuSans-41" x="29.492188"/>
       <use xlink:href="#DejaVuSans-47" x="96.150391"/>
      </g>
     </g>
    </g>
    <g id="xtick_92">
     <g id="line2d_92">
      <g>
       <use xlink:href="#m34e1129dd2" x="872.466942" y="320.4" style="stroke: #000000; stroke-width: 0.8"/>
      </g>
     </g>
     <g id="text_92">
      <!-- BNZL -->
      <g transform="translate(857.283849 354.377577) rotate(-60) scale(0.1 -0.1)">
       <use xlink:href="#DejaVuSans-42"/>
       <use xlink:href="#DejaVuSans-4e" x="68.603516"/>
       <use xlink:href="#DejaVuSans-5a" x="143.408203"/>
       <use xlink:href="#DejaVuSans-4c" x="211.914062"/>
      </g>
     </g>
    </g>
    <g id="xtick_93">
     <g id="line2d_93">
      <g>
       <use xlink:href="#m34e1129dd2" x="880.152893" y="320.4" style="stroke: #000000; stroke-width: 0.8"/>
      </g>
     </g>
     <g id="text_93">
      <!-- FRAS -->
      <g transform="translate(865.607299 353.273394) rotate(-60) scale(0.1 -0.1)">
       <use xlink:href="#DejaVuSans-46"/>
       <use xlink:href="#DejaVuSans-52" x="57.519531"/>
       <use xlink:href="#DejaVuSans-41" x="123.001953"/>
       <use xlink:href="#DejaVuSans-53" x="191.410156"/>
      </g>
     </g>
    </g>
    <g id="xtick_94">
     <g id="line2d_94">
      <g>
       <use xlink:href="#m34e1129dd2" x="887.838843" y="320.4" style="stroke: #000000; stroke-width: 0.8"/>
      </g>
     </g>
     <g id="text_94">
      <!-- WTB -->
      <g transform="translate(874.609656 350.993312) rotate(-60) scale(0.1 -0.1)">
       <use xlink:href="#DejaVuSans-57"/>
       <use xlink:href="#DejaVuSans-54" x="98.876953"/>
       <use xlink:href="#DejaVuSans-42" x="159.960938"/>
      </g>
     </g>
    </g>
    <g id="xtick_95">
     <g id="line2d_95">
      <g>
       <use xlink:href="#m34e1129dd2" x="895.524793" y="320.4" style="stroke: #000000; stroke-width: 0.8"/>
      </g>
     </g>
     <g id="text_95">
      <!-- MKS -->
      <g transform="translate(882.956544 349.848535) rotate(-60) scale(0.1 -0.1)">
       <use xlink:href="#DejaVuSans-4d"/>
       <use xlink:href="#DejaVuSans-4b" x="86.279297"/>
       <use xlink:href="#DejaVuSans-53" x="151.855469"/>
      </g>
     </g>
    </g>
    <g id="xtick_96">
     <g id="line2d_96">
      <g>
       <use xlink:href="#m34e1129dd2" x="903.210744" y="320.4" style="stroke: #000000; stroke-width: 0.8"/>
      </g>
     </g>
     <g id="text_96">
      <!-- SHEL -->
      <g transform="translate(888.529994 353.507492) rotate(-60) scale(0.1 -0.1)">
       <use xlink:href="#DejaVuSans-53"/>
       <use xlink:href="#DejaVuSans-48" x="63.476562"/>
       <use xlink:href="#DejaVuSans-45" x="138.671875"/>
       <use xlink:href="#DejaVuSans-4c" x="201.855469"/>
      </g>
     </g>
    </g>
    <g id="xtick_97">
     <g id="line2d_97">
      <g>
       <use xlink:href="#m34e1129dd2" x="910.896694" y="320.4" style="stroke: #000000; stroke-width: 0.8"/>
      </g>
     </g>
     <g id="text_97">
      <!-- HLN -->
      <g transform="translate(898.808913 349.016338) rotate(-60) scale(0.1 -0.1)">
       <use xlink:href="#DejaVuSans-48"/>
       <use xlink:href="#DejaVuSans-4c" x="75.195312"/>
       <use xlink:href="#DejaVuSans-4e" x="130.908203"/>
      </g>
     </g>
    </g>
    <g id="xtick_98">
     <g id="line2d_98">
      <g>
       <use xlink:href="#m34e1129dd2" x="918.582645" y="320.4" style="stroke: #000000; stroke-width: 0.8"/>
      </g>
     </g>
     <g id="text_98">
      <!-- UTG -->
      <g transform="translate(906.194082 349.537307) rotate(-60) scale(0.1 -0.1)">
       <use xlink:href="#DejaVuSans-55"/>
       <use xlink:href="#DejaVuSans-54" x="73.193359"/>
       <use xlink:href="#DejaVuSans-47" x="134.277344"/>
      </g>
     </g>
    </g>
    <g id="xtick_99">
     <g id="line2d_99">
      <g>
       <use xlink:href="#m34e1129dd2" x="926.268595" y="320.4" style="stroke: #000000; stroke-width: 0.8"/>
      </g>
     </g>
     <g id="text_99">
      <!-- ENT -->
      <g transform="translate(914.513627 348.43989) rotate(-60) scale(0.1 -0.1)">
       <use xlink:href="#DejaVuSans-45"/>
       <use xlink:href="#DejaVuSans-4e" x="63.183594"/>
       <use xlink:href="#DejaVuSans-54" x="137.988281"/>
      </g>
     </g>
    </g>
    <g id="xtick_100">
     <g id="line2d_100">
      <g>
       <use xlink:href="#m34e1129dd2" x="933.954545" y="320.4" style="stroke: #000000; stroke-width: 0.8"/>
      </g>
     </g>
     <g id="text_100">
      <!-- JD -->
      <g transform="translate(926.828483 340.422389) rotate(-60) scale(0.1 -0.1)">
       <use xlink:href="#DejaVuSans-4a"/>
       <use xlink:href="#DejaVuSans-44" x="29.492188"/>
      </g>
     </g>
    </g>
    <g id="text_101">
     <!-- Stock Tickers -->
     <g transform="translate(520.585938 372.060456) scale(0.1 -0.1)">
      <defs>
       <path id="DejaVuSans-74" d="M 1172 4494 
L 1172 3500 
L 2356 3500 
L 2356 3053 
L 1172 3053 
L 1172 1153 
Q 1172 725 1289 603 
Q 1406 481 1766 481 
L 2356 481 
L 2356 0 
L 1766 0 
Q 1100 0 847 248 
Q 594 497 594 1153 
L 594 3053 
L 172 3053 
L 172 3500 
L 594 3500 
L 594 4494 
L 1172 4494 
z
" transform="scale(0.015625)"/>
       <path id="DejaVuSans-6f" d="M 1959 3097 
Q 1497 3097 1228 2736 
Q 959 2375 959 1747 
Q 959 1119 1226 758 
Q 1494 397 1959 397 
Q 2419 397 2687 759 
Q 2956 1122 2956 1747 
Q 2956 2369 2687 2733 
Q 2419 3097 1959 3097 
z
M 1959 3584 
Q 2709 3584 3137 3096 
Q 3566 2609 3566 1747 
Q 3566 888 3137 398 
Q 2709 -91 1959 -91 
Q 1206 -91 779 398 
Q 353 888 353 1747 
Q 353 2609 779 3096 
Q 1206 3584 1959 3584 
z
" transform="scale(0.015625)"/>
       <path id="DejaVuSans-63" d="M 3122 3366 
L 3122 2828 
Q 2878 2963 2633 3030 
Q 2388 3097 2138 3097 
Q 1578 3097 1268 2742 
Q 959 2388 959 1747 
Q 959 1106 1268 751 
Q 1578 397 2138 397 
Q 2388 397 2633 464 
Q 2878 531 3122 666 
L 3122 134 
Q 2881 22 2623 -34 
Q 2366 -91 2075 -91 
Q 1284 -91 818 406 
Q 353 903 353 1747 
Q 353 2603 823 3093 
Q 1294 3584 2113 3584 
Q 2378 3584 2631 3529 
Q 2884 3475 3122 3366 
z
" transform="scale(0.015625)"/>
       <path id="DejaVuSans-6b" d="M 581 4863 
L 1159 4863 
L 1159 1991 
L 2875 3500 
L 3609 3500 
L 1753 1863 
L 3688 0 
L 2938 0 
L 1159 1709 
L 1159 0 
L 581 0 
L 581 4863 
z
" transform="scale(0.015625)"/>
       <path id="DejaVuSans-20" transform="scale(0.015625)"/>
       <path id="DejaVuSans-69" d="M 603 3500 
L 1178 3500 
L 1178 0 
L 603 0 
L 603 3500 
z
M 603 4863 
L 1178 4863 
L 1178 4134 
L 603 4134 
L 603 4863 
z
" transform="scale(0.015625)"/>
       <path id="DejaVuSans-65" d="M 3597 1894 
L 3597 1613 
L 953 1613 
Q 991 1019 1311 708 
Q 1631 397 2203 397 
Q 2534 397 2845 478 
Q 3156 559 3463 722 
L 3463 178 
Q 3153 47 2828 -22 
Q 2503 -91 2169 -91 
Q 1331 -91 842 396 
Q 353 884 353 1716 
Q 353 2575 817 3079 
Q 1281 3584 2069 3584 
Q 2775 3584 3186 3129 
Q 3597 2675 3597 1894 
z
M 3022 2063 
Q 3016 2534 2758 2815 
Q 2500 3097 2075 3097 
Q 1594 3097 1305 2825 
Q 1016 2553 972 2059 
L 3022 2063 
z
" transform="scale(0.015625)"/>
       <path id="DejaVuSans-72" d="M 2631 2963 
Q 2534 3019 2420 3045 
Q 2306 3072 2169 3072 
Q 1681 3072 1420 2755 
Q 1159 2438 1159 1844 
L 1159 0 
L 581 0 
L 581 3500 
L 1159 3500 
L 1159 2956 
Q 1341 3275 1631 3429 
Q 1922 3584 2338 3584 
Q 2397 3584 2469 3576 
Q 2541 3569 2628 3553 
L 2631 2963 
z
" transform="scale(0.015625)"/>
       <path id="DejaVuSans-73" d="M 2834 3397 
L 2834 2853 
Q 2591 2978 2328 3040 
Q 2066 3103 1784 3103 
Q 1356 3103 1142 2972 
Q 928 2841 928 2578 
Q 928 2378 1081 2264 
Q 1234 2150 1697 2047 
L 1894 2003 
Q 2506 1872 2764 1633 
Q 3022 1394 3022 966 
Q 3022 478 2636 193 
Q 2250 -91 1575 -91 
Q 1294 -91 989 -36 
Q 684 19 347 128 
L 347 722 
Q 666 556 975 473 
Q 1284 391 1588 391 
Q 1994 391 2212 530 
Q 2431 669 2431 922 
Q 2431 1156 2273 1281 
Q 2116 1406 1581 1522 
L 1381 1569 
Q 847 1681 609 1914 
Q 372 2147 372 2553 
Q 372 3047 722 3315 
Q 1072 3584 1716 3584 
Q 2034 3584 2315 3537 
Q 2597 3491 2834 3397 
z
" transform="scale(0.015625)"/>
      </defs>
      <use xlink:href="#DejaVuSans-53"/>
      <use xlink:href="#DejaVuSans-74" x="63.476562"/>
      <use xlink:href="#DejaVuSans-6f" x="102.685547"/>
      <use xlink:href="#DejaVuSans-63" x="163.867188"/>
      <use xlink:href="#DejaVuSans-6b" x="218.847656"/>
      <use xlink:href="#DejaVuSans-20" x="276.757812"/>
      <use xlink:href="#DejaVuSans-54" x="308.544922"/>
      <use xlink:href="#DejaVuSans-69" x="366.503906"/>
      <use xlink:href="#DejaVuSans-63" x="394.287109"/>
      <use xlink:href="#DejaVuSans-6b" x="449.267578"/>
      <use xlink:href="#DejaVuSans-65" x="503.552734"/>
      <use xlink:href="#DejaVuSans-72" x="565.076172"/>
      <use xlink:href="#DejaVuSans-73" x="606.189453"/>
     </g>
    </g>
   </g>
   <g id="matplotlib.axis_2">
    <g id="ytick_1">
     <g id="line2d_101">
      <defs>
       <path id="mc2c62ccc90" d="M 0 0 
L -3.5 0 
" style="stroke: #000000; stroke-width: 0.8"/>
      </defs>
      <g>
       <use xlink:href="#mc2c62ccc90" x="135" y="283.146772" style="stroke: #000000; stroke-width: 0.8"/>
      </g>
     </g>
     <g id="text_102">
      <!-- 0.10 -->
      <g transform="translate(97.354687 286.94599) scale(0.1 -0.1)">
       <defs>
        <path id="DejaVuSans-2212" d="M 678 2272 
L 4684 2272 
L 4684 1741 
L 678 1741 
L 678 2272 
z
" transform="scale(0.015625)"/>
        <path id="DejaVuSans-30" d="M 2034 4250 
Q 1547 4250 1301 3770 
Q 1056 3291 1056 2328 
Q 1056 1369 1301 889 
Q 1547 409 2034 409 
Q 2525 409 2770 889 
Q 3016 1369 3016 2328 
Q 3016 3291 2770 3770 
Q 2525 4250 2034 4250 
z
M 2034 4750 
Q 2819 4750 3233 4129 
Q 3647 3509 3647 2328 
Q 3647 1150 3233 529 
Q 2819 -91 2034 -91 
Q 1250 -91 836 529 
Q 422 1150 422 2328 
Q 422 3509 836 4129 
Q 1250 4750 2034 4750 
z
" transform="scale(0.015625)"/>
        <path id="DejaVuSans-2e" d="M 684 794 
L 1344 794 
L 1344 0 
L 684 0 
L 684 794 
z
" transform="scale(0.015625)"/>
       </defs>
       <use xlink:href="#DejaVuSans-2212"/>
       <use xlink:href="#DejaVuSans-30" x="83.789062"/>
       <use xlink:href="#DejaVuSans-2e" x="147.412109"/>
       <use xlink:href="#DejaVuSans-31" x="179.199219"/>
       <use xlink:href="#DejaVuSans-30" x="242.822266"/>
      </g>
     </g>
    </g>
    <g id="ytick_2">
     <g id="line2d_102">
      <g>
       <use xlink:href="#mc2c62ccc90" x="135" y="241.871172" style="stroke: #000000; stroke-width: 0.8"/>
      </g>
     </g>
     <g id="text_103">
      <!-- 0.05 -->
      <g transform="translate(97.354687 245.670391) scale(0.1 -0.1)">
       <defs>
        <path id="DejaVuSans-35" d="M 691 4666 
L 3169 4666 
L 3169 4134 
L 1269 4134 
L 1269 2991 
Q 1406 3038 1543 3061 
Q 1681 3084 1819 3084 
Q 2600 3084 3056 2656 
Q 3513 2228 3513 1497 
Q 3513 744 3044 326 
Q 2575 -91 1722 -91 
Q 1428 -91 1123 -41 
Q 819 9 494 109 
L 494 744 
Q 775 591 1075 516 
Q 1375 441 1709 441 
Q 2250 441 2565 725 
Q 2881 1009 2881 1497 
Q 2881 1984 2565 2268 
Q 2250 2553 1709 2553 
Q 1456 2553 1204 2497 
Q 953 2441 691 2322 
L 691 4666 
z
" transform="scale(0.015625)"/>
       </defs>
       <use xlink:href="#DejaVuSans-2212"/>
       <use xlink:href="#DejaVuSans-30" x="83.789062"/>
       <use xlink:href="#DejaVuSans-2e" x="147.412109"/>
       <use xlink:href="#DejaVuSans-30" x="179.199219"/>
       <use xlink:href="#DejaVuSans-35" x="242.822266"/>
      </g>
     </g>
    </g>
    <g id="ytick_3">
     <g id="line2d_103">
      <g>
       <use xlink:href="#mc2c62ccc90" x="135" y="200.595572" style="stroke: #000000; stroke-width: 0.8"/>
      </g>
     </g>
     <g id="text_104">
      <!-- 0.00 -->
      <g transform="translate(105.734375 204.394791) scale(0.1 -0.1)">
       <use xlink:href="#DejaVuSans-30"/>
       <use xlink:href="#DejaVuSans-2e" x="63.623047"/>
       <use xlink:href="#DejaVuSans-30" x="95.410156"/>
       <use xlink:href="#DejaVuSans-30" x="159.033203"/>
      </g>
     </g>
    </g>
    <g id="ytick_4">
     <g id="line2d_104">
      <g>
       <use xlink:href="#mc2c62ccc90" x="135" y="159.319972" style="stroke: #000000; stroke-width: 0.8"/>
      </g>
     </g>
     <g id="text_105">
      <!-- 0.05 -->
      <g transform="translate(105.734375 163.119191) scale(0.1 -0.1)">
       <use xlink:href="#DejaVuSans-30"/>
       <use xlink:href="#DejaVuSans-2e" x="63.623047"/>
       <use xlink:href="#DejaVuSans-30" x="95.410156"/>
       <use xlink:href="#DejaVuSans-35" x="159.033203"/>
      </g>
     </g>
    </g>
    <g id="ytick_5">
     <g id="line2d_105">
      <g>
       <use xlink:href="#mc2c62ccc90" x="135" y="118.044372" style="stroke: #000000; stroke-width: 0.8"/>
      </g>
     </g>
     <g id="text_106">
      <!-- 0.10 -->
      <g transform="translate(105.734375 121.843591) scale(0.1 -0.1)">
       <use xlink:href="#DejaVuSans-30"/>
       <use xlink:href="#DejaVuSans-2e" x="63.623047"/>
       <use xlink:href="#DejaVuSans-31" x="95.410156"/>
       <use xlink:href="#DejaVuSans-30" x="159.033203"/>
      </g>
     </g>
    </g>
    <g id="ytick_6">
     <g id="line2d_106">
      <g>
       <use xlink:href="#mc2c62ccc90" x="135" y="76.768772" style="stroke: #000000; stroke-width: 0.8"/>
      </g>
     </g>
     <g id="text_107">
      <!-- 0.15 -->
      <g transform="translate(105.734375 80.567991) scale(0.1 -0.1)">
       <use xlink:href="#DejaVuSans-30"/>
       <use xlink:href="#DejaVuSans-2e" x="63.623047"/>
       <use xlink:href="#DejaVuSans-31" x="95.410156"/>
       <use xlink:href="#DejaVuSans-35" x="159.033203"/>
      </g>
     </g>
    </g>
    <g id="text_108">
     <!-- Autocorrelation (lag-i) -->
     <g transform="translate(91.275 236.546094) rotate(-90) scale(0.1 -0.1)">
      <defs>
       <path id="DejaVuSans-75" d="M 544 1381 
L 544 3500 
L 1119 3500 
L 1119 1403 
Q 1119 906 1312 657 
Q 1506 409 1894 409 
Q 2359 409 2629 706 
Q 2900 1003 2900 1516 
L 2900 3500 
L 3475 3500 
L 3475 0 
L 2900 0 
L 2900 538 
Q 2691 219 2414 64 
Q 2138 -91 1772 -91 
Q 1169 -91 856 284 
Q 544 659 544 1381 
z
M 1991 3584 
L 1991 3584 
z
" transform="scale(0.015625)"/>
       <path id="DejaVuSans-6c" d="M 603 4863 
L 1178 4863 
L 1178 0 
L 603 0 
L 603 4863 
z
" transform="scale(0.015625)"/>
       <path id="DejaVuSans-61" d="M 2194 1759 
Q 1497 1759 1228 1600 
Q 959 1441 959 1056 
Q 959 750 1161 570 
Q 1363 391 1709 391 
Q 2188 391 2477 730 
Q 2766 1069 2766 1631 
L 2766 1759 
L 2194 1759 
z
M 3341 1997 
L 3341 0 
L 2766 0 
L 2766 531 
Q 2569 213 2275 61 
Q 1981 -91 1556 -91 
Q 1019 -91 701 211 
Q 384 513 384 1019 
Q 384 1609 779 1909 
Q 1175 2209 1959 2209 
L 2766 2209 
L 2766 2266 
Q 2766 2663 2505 2880 
Q 2244 3097 1772 3097 
Q 1472 3097 1187 3025 
Q 903 2953 641 2809 
L 641 3341 
Q 956 3463 1253 3523 
Q 1550 3584 1831 3584 
Q 2591 3584 2966 3190 
Q 3341 2797 3341 1997 
z
" transform="scale(0.015625)"/>
       <path id="DejaVuSans-6e" d="M 3513 2113 
L 3513 0 
L 2938 0 
L 2938 2094 
Q 2938 2591 2744 2837 
Q 2550 3084 2163 3084 
Q 1697 3084 1428 2787 
Q 1159 2491 1159 1978 
L 1159 0 
L 581 0 
L 581 3500 
L 1159 3500 
L 1159 2956 
Q 1366 3272 1645 3428 
Q 1925 3584 2291 3584 
Q 2894 3584 3203 3211 
Q 3513 2838 3513 2113 
z
" transform="scale(0.015625)"/>
       <path id="DejaVuSans-28" d="M 1984 4856 
Q 1566 4138 1362 3434 
Q 1159 2731 1159 2009 
Q 1159 1288 1364 580 
Q 1569 -128 1984 -844 
L 1484 -844 
Q 1016 -109 783 600 
Q 550 1309 550 2009 
Q 550 2706 781 3412 
Q 1013 4119 1484 4856 
L 1984 4856 
z
" transform="scale(0.015625)"/>
       <path id="DejaVuSans-67" d="M 2906 1791 
Q 2906 2416 2648 2759 
Q 2391 3103 1925 3103 
Q 1463 3103 1205 2759 
Q 947 2416 947 1791 
Q 947 1169 1205 825 
Q 1463 481 1925 481 
Q 2391 481 2648 825 
Q 2906 1169 2906 1791 
z
M 3481 434 
Q 3481 -459 3084 -895 
Q 2688 -1331 1869 -1331 
Q 1566 -1331 1297 -1286 
Q 1028 -1241 775 -1147 
L 775 -588 
Q 1028 -725 1275 -790 
Q 1522 -856 1778 -856 
Q 2344 -856 2625 -561 
Q 2906 -266 2906 331 
L 2906 616 
Q 2728 306 2450 153 
Q 2172 0 1784 0 
Q 1141 0 747 490 
Q 353 981 353 1791 
Q 353 2603 747 3093 
Q 1141 3584 1784 3584 
Q 2172 3584 2450 3431 
Q 2728 3278 2906 2969 
L 2906 3500 
L 3481 3500 
L 3481 434 
z
" transform="scale(0.015625)"/>
       <path id="DejaVuSans-29" d="M 513 4856 
L 1013 4856 
Q 1481 4119 1714 3412 
Q 1947 2706 1947 2009 
Q 1947 1309 1714 600 
Q 1481 -109 1013 -844 
L 513 -844 
Q 928 -128 1133 580 
Q 1338 1288 1338 2009 
Q 1338 2731 1133 3434 
Q 928 4138 513 4856 
z
" transform="scale(0.015625)"/>
      </defs>
      <use xlink:href="#DejaVuSans-41"/>
      <use xlink:href="#DejaVuSans-75" x="68.408203"/>
      <use xlink:href="#DejaVuSans-74" x="131.787109"/>
      <use xlink:href="#DejaVuSans-6f" x="170.996094"/>
      <use xlink:href="#DejaVuSans-63" x="232.177734"/>
      <use xlink:href="#DejaVuSans-6f" x="287.158203"/>
      <use xlink:href="#DejaVuSans-72" x="348.339844"/>
      <use xlink:href="#DejaVuSans-72" x="387.703125"/>
      <use xlink:href="#DejaVuSans-65" x="426.566406"/>
      <use xlink:href="#DejaVuSans-6c" x="488.089844"/>
      <use xlink:href="#DejaVuSans-61" x="515.873047"/>
      <use xlink:href="#DejaVuSans-74" x="577.152344"/>
      <use xlink:href="#DejaVuSans-69" x="616.361328"/>
      <use xlink:href="#DejaVuSans-6f" x="644.144531"/>
      <use xlink:href="#DejaVuSans-6e" x="705.326172"/>
      <use xlink:href="#DejaVuSans-20" x="768.705078"/>
      <use xlink:href="#DejaVuSans-28" x="800.492188"/>
      <use xlink:href="#DejaVuSans-6c" x="839.505859"/>
      <use xlink:href="#DejaVuSans-61" x="867.289062"/>
      <use xlink:href="#DejaVuSans-67" x="928.568359"/>
      <use xlink:href="#DejaVuSans-2d" x="992.044922"/>
      <use xlink:href="#DejaVuSans-69" x="1028.128906"/>
      <use xlink:href="#DejaVuSans-29" x="1055.912109"/>
     </g>
    </g>
   </g>
   <g id="line2d_107">
    <path d="M 173.045455 304.48925 
L 180.731405 296.758212 
L 188.417355 291.773436 
L 196.103306 278.661757 
L 203.789256 271.009102 
L 211.475207 270.105677 
L 219.161157 262.32366 
L 226.847107 259.767022 
L 234.533058 257.060992 
L 242.219008 255.701964 
L 249.904959 249.101528 
L 257.590909 248.13958 
L 265.27686 245.386272 
L 272.96281 244.072671 
L 280.64876 243.616794 
L 288.334711 242.696933 
L 296.020661 241.906513 
L 303.706612 240.441408 
L 311.392562 236.807576 
L 319.078512 233.290322 
L 326.764463 232.395179 
L 334.450413 231.270358 
L 342.136364 230.84263 
L 349.822314 230.333848 
L 357.508264 230.157292 
L 365.194215 229.750912 
L 372.880165 229.582787 
L 380.566116 229.575255 
L 388.252066 227.611969 
L 395.938017 227.54382 
L 403.623967 222.528622 
L 411.309917 221.77407 
L 418.995868 220.48965 
L 426.681818 218.255169 
L 434.367769 215.005875 
L 442.053719 214.218147 
L 449.739669 214.115212 
L 457.42562 210.889848 
L 465.11157 210.736863 
L 472.797521 210.080047 
L 480.483471 210.058546 
L 488.169421 209.92742 
L 495.855372 209.882058 
L 503.541322 209.86295 
L 511.227273 209.820396 
L 518.913223 209.798699 
L 526.599174 209.74671 
L 534.285124 209.728118 
L 541.971074 209.696344 
L 549.657025 209.595921 
L 557.342975 209.594943 
L 565.028926 209.516438 
L 572.714876 208.93533 
L 580.400826 207.290688 
L 588.086777 206.760655 
L 595.772727 204.78921 
L 603.458678 203.947261 
L 611.144628 203.827194 
L 618.830579 203.025155 
L 626.516529 202.468452 
L 634.202479 201.904016 
L 641.88843 201.200877 
L 649.57438 199.90605 
L 657.260331 196.452817 
L 664.946281 195.063664 
L 672.632231 192.302888 
L 680.318182 190.112228 
L 688.004132 188.678154 
L 695.690083 187.924862 
L 703.376033 187.103713 
L 711.061983 185.962344 
L 718.747934 185.660312 
L 726.433884 184.864954 
L 734.119835 184.040568 
L 741.805785 179.444275 
L 749.491736 179.242151 
L 757.177686 178.101689 
L 764.863636 178.035135 
L 772.549587 174.402776 
L 780.235537 174.060955 
L 787.921488 173.324646 
L 795.607438 171.819008 
L 803.293388 171.774458 
L 810.979339 171.014005 
L 818.665289 170.926622 
L 826.35124 170.505151 
L 834.03719 168.603897 
L 841.72314 167.491197 
L 849.409091 164.318288 
L 857.095041 155.932261 
L 864.780992 151.668102 
L 872.466942 151.418729 
L 880.152893 151.391639 
L 887.838843 149.928581 
L 895.524793 148.571296 
L 903.210744 146.496118 
L 910.896694 122.099251 
L 918.582645 110.426603 
L 926.268595 96.947965 
L 933.954545 55.8 
" clip-path="url(#p720111864c)" style="fill: none; stroke: #1f77b4; stroke-width: 1.5; stroke-linecap: square"/>
   </g>
   <g id="line2d_108">
    <path d="M 173.045455 184.802621 
L 180.731405 117.439081 
L 188.417355 242.105631 
L 196.103306 166.582068 
L 203.789256 185.774028 
L 211.475207 200.268443 
L 219.161157 140.557546 
L 226.847107 218.434567 
L 234.533058 199.58811 
L 242.219008 155.015252 
L 249.904959 205.839107 
L 257.590909 205.070848 
L 265.27686 183.896525 
L 272.96281 125.684326 
L 280.64876 222.457838 
L 288.334711 227.471533 
L 296.020661 183.090033 
L 303.706612 234.295196 
L 311.392562 160.988196 
L 319.078512 178.076255 
L 326.764463 188.665668 
L 334.450413 203.183752 
L 342.136364 154.959883 
L 349.822314 196.898891 
L 357.508264 181.317141 
L 365.194215 195.016358 
L 372.880165 208.420114 
L 380.566116 213.691057 
L 388.252066 243.258163 
L 395.938017 183.966763 
L 403.623967 196.212179 
L 411.309917 246.017385 
L 418.995868 193.969834 
L 426.681818 91.85997 
L 434.367769 249.964502 
L 442.053719 219.01838 
L 449.739669 151.66094 
L 457.42562 232.078663 
L 465.11157 161.863272 
L 472.797521 201.962858 
L 480.483471 209.174513 
L 488.169421 201.340189 
L 495.855372 201.353208 
L 503.541322 201.520832 
L 511.227273 201.470316 
L 518.913223 201.577258 
L 526.599174 201.342945 
L 534.285124 201.518696 
L 541.971074 201.707263 
L 549.657025 201.586731 
L 557.342975 201.782883 
L 565.028926 201.38138 
L 572.714876 256.759117 
L 580.400826 221.312114 
L 588.086777 151.528779 
L 595.772727 179.470709 
L 603.458678 211.345715 
L 611.144628 199.140658 
L 618.830579 115.984162 
L 626.516529 239.969692 
L 634.202479 221.532699 
L 641.88843 156.342727 
L 649.57438 140.339868 
L 657.260331 198.950894 
L 664.946281 211.082653 
L 672.632231 175.213088 
L 680.318182 141.291345 
L 688.004132 166.028663 
L 695.690083 198.761047 
L 703.376033 220.544129 
L 711.061983 184.168596 
L 718.747934 176.160871 
L 726.433884 207.149282 
L 734.119835 164.910708 
L 741.805785 206.934371 
L 749.491736 190.230324 
L 757.177686 219.137293 
L 764.863636 226.780365 
L 772.549587 180.380501 
L 780.235537 212.605575 
L 787.921488 149.225086 
L 795.607438 255.771968 
L 803.293388 130.255007 
L 810.979339 183.27047 
L 818.665289 221.541318 
L 826.35124 225.526838 
L 834.03719 157.277812 
L 841.72314 248.00124 
L 849.409091 307.8 
L 857.095041 181.16954 
L 864.780992 163.049402 
L 872.466942 265.136544 
L 880.152893 193.882876 
L 887.838843 184.031742 
L 895.524793 253.454624 
L 903.210744 258.223615 
L 910.896694 252.388207 
L 918.582645 168.77764 
L 926.268595 119.115042 
L 933.954545 165.943197 
" clip-path="url(#p720111864c)" style="fill: none; stroke: #ff7f0e; stroke-width: 1.5; stroke-linecap: square"/>
   </g>
   <g id="line2d_109">
    <path d="M 173.045455 231.122839 
L 180.731405 246.039789 
L 188.417355 150.373349 
L 196.103306 231.369478 
L 203.789256 203.09284 
L 211.475207 242.344835 
L 219.161157 272.047771 
L 226.847107 272.791785 
L 234.533058 226.051047 
L 242.219008 244.341205 
L 249.904959 280.17249 
L 257.590909 210.777833 
L 265.27686 214.831501 
L 272.96281 232.936115 
L 280.64876 221.269844 
L 288.334711 176.162198 
L 296.020661 240.956626 
L 303.706612 243.504639 
L 311.392562 215.86148 
L 319.078512 166.441867 
L 326.764463 206.119922 
L 334.450413 118.143657 
L 342.136364 188.56403 
L 349.822314 223.321227 
L 357.508264 230.168744 
L 365.194215 192.42342 
L 372.880165 229.319089 
L 380.566116 242.934979 
L 388.252066 203.117429 
L 395.938017 228.995506 
L 403.623967 179.784467 
L 411.309917 230.852113 
L 418.995868 274.641963 
L 426.681818 131.428328 
L 434.367769 213.424427 
L 442.053719 227.999261 
L 449.739669 204.928067 
L 457.42562 263.859226 
L 465.11157 255.822451 
L 472.797521 201.590418 
L 480.483471 259.998385 
L 488.169421 201.640007 
L 495.855372 201.415385 
L 503.541322 201.444299 
L 511.227273 201.493428 
L 518.913223 201.630362 
L 526.599174 201.527024 
L 534.285124 201.39476 
L 541.971074 201.476976 
L 549.657025 201.197079 
L 557.342975 201.64497 
L 565.028926 201.646312 
L 572.714876 200.131231 
L 580.400826 233.255098 
L 588.086777 214.396367 
L 595.772727 207.550818 
L 603.458678 242.666571 
L 611.144628 225.430175 
L 618.830579 204.940247 
L 626.516529 250.819847 
L 634.202479 209.037693 
L 641.88843 223.868644 
L 649.57438 124.761188 
L 657.260331 252.588068 
L 664.946281 228.787043 
L 672.632231 239.173791 
L 680.318182 287.826067 
L 688.004132 275.441963 
L 695.690083 198.165026 
L 703.376033 241.031523 
L 711.061983 219.491748 
L 718.747934 240.593243 
L 726.433884 210.002877 
L 734.119835 226.029266 
L 741.805785 203.126378 
L 749.491736 218.229726 
L 757.177686 245.668015 
L 764.863636 235.307835 
L 772.549587 240.278848 
L 780.235537 220.119643 
L 787.921488 249.180045 
L 795.607438 214.260186 
L 803.293388 228.787082 
L 810.979339 249.256783 
L 818.665289 172.803638 
L 826.35124 268.459201 
L 834.03719 214.943908 
L 841.72314 213.4797 
L 849.409091 226.510894 
L 857.095041 208.374078 
L 864.780992 203.534776 
L 872.466942 245.247202 
L 880.152893 221.068277 
L 887.838843 239.725053 
L 895.524793 278.743764 
L 903.210744 226.790579 
L 910.896694 281.131134 
L 918.582645 240.801851 
L 926.268595 158.44233 
L 933.954545 188.890772 
" clip-path="url(#p720111864c)" style="fill: none; stroke: #2ca02c; stroke-width: 1.5; stroke-linecap: square"/>
   </g>
   <g id="line2d_110">
    <path d="M 173.045455 218.227768 
L 180.731405 243.882632 
L 188.417355 167.859998 
L 196.103306 236.834413 
L 203.789256 232.120581 
L 211.475207 245.618678 
L 219.161157 217.851336 
L 226.847107 174.58348 
L 234.533058 215.665825 
L 242.219008 235.304574 
L 249.904959 194.349661 
L 257.590909 175.318101 
L 265.27686 201.756266 
L 272.96281 193.524408 
L 280.64876 174.049071 
L 288.334711 229.081673 
L 296.020661 192.937831 
L 303.706612 236.210021 
L 311.392562 199.038339 
L 319.078512 215.483 
L 326.764463 205.484709 
L 334.450413 203.034903 
L 342.136364 203.86701 
L 349.822314 169.863919 
L 357.508264 264.201884 
L 365.194215 177.974366 
L 372.880165 226.785862 
L 380.566116 163.169581 
L 388.252066 183.216434 
L 395.938017 211.205278 
L 403.623967 230.31137 
L 411.309917 205.433399 
L 418.995868 169.818303 
L 426.681818 261.215587 
L 434.367769 135.870909 
L 442.053719 180.494123 
L 449.739669 235.838965 
L 457.42562 246.584966 
L 465.11157 197.622009 
L 472.797521 201.252401 
L 480.483471 302.631016 
L 488.169421 201.566231 
L 495.855372 201.688487 
L 503.541322 201.535095 
L 511.227273 201.524135 
L 518.913223 201.547061 
L 526.599174 201.633018 
L 534.285124 201.564236 
L 541.971074 201.426309 
L 549.657025 201.610813 
L 557.342975 201.368413 
L 565.028926 201.453867 
L 572.714876 194.7024 
L 580.400826 270.626978 
L 588.086777 256.993215 
L 595.772727 160.696491 
L 603.458678 243.451898 
L 611.144628 164.813695 
L 618.830579 191.815617 
L 626.516529 192.90738 
L 634.202479 174.004969 
L 641.88843 240.425077 
L 649.57438 203.876013 
L 657.260331 212.752226 
L 664.946281 207.529969 
L 672.632231 158.674889 
L 680.318182 264.256469 
L 688.004132 257.443033 
L 695.690083 189.190225 
L 703.376033 203.924247 
L 711.061983 240.369453 
L 718.747934 244.224258 
L 726.433884 222.413584 
L 734.119835 209.521324 
L 741.805785 199.278466 
L 749.491736 200.206191 
L 757.177686 201.735726 
L 764.863636 155.3095 
L 772.549587 238.657877 
L 780.235537 221.106499 
L 787.921488 219.370101 
L 795.607438 198.77405 
L 803.293388 257.118556 
L 810.979339 169.025886 
L 818.665289 142.860578 
L 826.35124 155.928745 
L 834.03719 233.054783 
L 841.72314 191.08535 
L 849.409091 153.338719 
L 857.095041 247.220694 
L 864.780992 152.587495 
L 872.466942 190.268721 
L 880.152893 165.837668 
L 887.838843 249.609654 
L 895.524793 153.545743 
L 903.210744 187.062058 
L 910.896694 177.729981 
L 918.582645 243.819709 
L 926.268595 169.196162 
L 933.954545 242.396691 
" clip-path="url(#p720111864c)" style="fill: none; stroke: #d62728; stroke-width: 1.5; stroke-linecap: square"/>
   </g>
   <g id="patch_3">
    <path d="M 135 320.4 
L 135 43.2 
" style="fill: none; stroke: #000000; stroke-width: 0.8; stroke-linejoin: miter; stroke-linecap: square"/>
   </g>
   <g id="patch_4">
    <path d="M 972 320.4 
L 972 43.2 
" style="fill: none; stroke: #000000; stroke-width: 0.8; stroke-linejoin: miter; stroke-linecap: square"/>
   </g>
   <g id="patch_5">
    <path d="M 135 320.4 
L 972 320.4 
" style="fill: none; stroke: #000000; stroke-width: 0.8; stroke-linejoin: miter; stroke-linecap: square"/>
   </g>
   <g id="patch_6">
    <path d="M 135 43.2 
L 972 43.2 
" style="fill: none; stroke: #000000; stroke-width: 0.8; stroke-linejoin: miter; stroke-linecap: square"/>
   </g>
   <g id="text_109">
    <!-- Autocorrelation of the price percentage changes for each stock -->
    <g transform="translate(363.553125 37.2) scale(0.12 -0.12)">
     <defs>
      <path id="DejaVuSans-66" d="M 2375 4863 
L 2375 4384 
L 1825 4384 
Q 1516 4384 1395 4259 
Q 1275 4134 1275 3809 
L 1275 3500 
L 2222 3500 
L 2222 3053 
L 1275 3053 
L 1275 0 
L 697 0 
L 697 3053 
L 147 3053 
L 147 3500 
L 697 3500 
L 697 3744 
Q 697 4328 969 4595 
Q 1241 4863 1831 4863 
L 2375 4863 
z
" transform="scale(0.015625)"/>
      <path id="DejaVuSans-68" d="M 3513 2113 
L 3513 0 
L 2938 0 
L 2938 2094 
Q 2938 2591 2744 2837 
Q 2550 3084 2163 3084 
Q 1697 3084 1428 2787 
Q 1159 2491 1159 1978 
L 1159 0 
L 581 0 
L 581 4863 
L 1159 4863 
L 1159 2956 
Q 1366 3272 1645 3428 
Q 1925 3584 2291 3584 
Q 2894 3584 3203 3211 
Q 3513 2838 3513 2113 
z
" transform="scale(0.015625)"/>
      <path id="DejaVuSans-70" d="M 1159 525 
L 1159 -1331 
L 581 -1331 
L 581 3500 
L 1159 3500 
L 1159 2969 
Q 1341 3281 1617 3432 
Q 1894 3584 2278 3584 
Q 2916 3584 3314 3078 
Q 3713 2572 3713 1747 
Q 3713 922 3314 415 
Q 2916 -91 2278 -91 
Q 1894 -91 1617 61 
Q 1341 213 1159 525 
z
M 3116 1747 
Q 3116 2381 2855 2742 
Q 2594 3103 2138 3103 
Q 1681 3103 1420 2742 
Q 1159 2381 1159 1747 
Q 1159 1113 1420 752 
Q 1681 391 2138 391 
Q 2594 391 2855 752 
Q 3116 1113 3116 1747 
z
" transform="scale(0.015625)"/>
     </defs>
     <use xlink:href="#DejaVuSans-41"/>
     <use xlink:href="#DejaVuSans-75" x="68.408203"/>
     <use xlink:href="#DejaVuSans-74" x="131.787109"/>
     <use xlink:href="#DejaVuSans-6f" x="170.996094"/>
     <use xlink:href="#DejaVuSans-63" x="232.177734"/>
     <use xlink:href="#DejaVuSans-6f" x="287.158203"/>
     <use xlink:href="#DejaVuSans-72" x="348.339844"/>
     <use xlink:href="#DejaVuSans-72" x="387.703125"/>
     <use xlink:href="#DejaVuSans-65" x="426.566406"/>
     <use xlink:href="#DejaVuSans-6c" x="488.089844"/>
     <use xlink:href="#DejaVuSans-61" x="515.873047"/>
     <use xlink:href="#DejaVuSans-74" x="577.152344"/>
     <use xlink:href="#DejaVuSans-69" x="616.361328"/>
     <use xlink:href="#DejaVuSans-6f" x="644.144531"/>
     <use xlink:href="#DejaVuSans-6e" x="705.326172"/>
     <use xlink:href="#DejaVuSans-20" x="768.705078"/>
     <use xlink:href="#DejaVuSans-6f" x="800.492188"/>
     <use xlink:href="#DejaVuSans-66" x="861.673828"/>
     <use xlink:href="#DejaVuSans-20" x="896.878906"/>
     <use xlink:href="#DejaVuSans-74" x="928.666016"/>
     <use xlink:href="#DejaVuSans-68" x="967.875"/>
     <use xlink:href="#DejaVuSans-65" x="1031.253906"/>
     <use xlink:href="#DejaVuSans-20" x="1092.777344"/>
     <use xlink:href="#DejaVuSans-70" x="1124.564453"/>
     <use xlink:href="#DejaVuSans-72" x="1188.041016"/>
     <use xlink:href="#DejaVuSans-69" x="1229.154297"/>
     <use xlink:href="#DejaVuSans-63" x="1256.9375"/>
     <use xlink:href="#DejaVuSans-65" x="1311.917969"/>
     <use xlink:href="#DejaVuSans-20" x="1373.441406"/>
     <use xlink:href="#DejaVuSans-70" x="1405.228516"/>
     <use xlink:href="#DejaVuSans-65" x="1468.705078"/>
     <use xlink:href="#DejaVuSans-72" x="1530.228516"/>
     <use xlink:href="#DejaVuSans-63" x="1569.091797"/>
     <use xlink:href="#DejaVuSans-65" x="1624.072266"/>
     <use xlink:href="#DejaVuSans-6e" x="1685.595703"/>
     <use xlink:href="#DejaVuSans-74" x="1748.974609"/>
     <use xlink:href="#DejaVuSans-61" x="1788.183594"/>
     <use xlink:href="#DejaVuSans-67" x="1849.462891"/>
     <use xlink:href="#DejaVuSans-65" x="1912.939453"/>
     <use xlink:href="#DejaVuSans-20" x="1974.462891"/>
     <use xlink:href="#DejaVuSans-63" x="2006.25"/>
     <use xlink:href="#DejaVuSans-68" x="2061.230469"/>
     <use xlink:href="#DejaVuSans-61" x="2124.609375"/>
     <use xlink:href="#DejaVuSans-6e" x="2185.888672"/>
     <use xlink:href="#DejaVuSans-67" x="2249.267578"/>
     <use xlink:href="#DejaVuSans-65" x="2312.744141"/>
     <use xlink:href="#DejaVuSans-73" x="2374.267578"/>
     <use xlink:href="#DejaVuSans-20" x="2426.367188"/>
     <use xlink:href="#DejaVuSans-66" x="2458.154297"/>
     <use xlink:href="#DejaVuSans-6f" x="2493.359375"/>
     <use xlink:href="#DejaVuSans-72" x="2554.541016"/>
     <use xlink:href="#DejaVuSans-20" x="2595.654297"/>
     <use xlink:href="#DejaVuSans-65" x="2627.441406"/>
     <use xlink:href="#DejaVuSans-61" x="2688.964844"/>
     <use xlink:href="#DejaVuSans-63" x="2750.244141"/>
     <use xlink:href="#DejaVuSans-68" x="2805.224609"/>
     <use xlink:href="#DejaVuSans-20" x="2868.603516"/>
     <use xlink:href="#DejaVuSans-73" x="2900.390625"/>
     <use xlink:href="#DejaVuSans-74" x="2952.490234"/>
     <use xlink:href="#DejaVuSans-6f" x="2991.699219"/>
     <use xlink:href="#DejaVuSans-63" x="3052.880859"/>
     <use xlink:href="#DejaVuSans-6b" x="3107.861328"/>
    </g>
   </g>
   <g id="legend_1">
    <g id="patch_7">
     <path d="M 140.831 98.771512 
L 188.499425 98.771512 
Q 190.165425 98.771512 190.165425 97.105512 
L 190.165425 49.031 
Q 190.165425 47.365 188.499425 47.365 
L 140.831 47.365 
Q 139.165 47.365 139.165 49.031 
L 139.165 97.105512 
Q 139.165 98.771512 140.831 98.771512 
z
" style="fill: #ffffff; opacity: 0.8; stroke: #cccccc; stroke-linejoin: miter"/>
    </g>
    <g id="line2d_111">
     <path d="M 142.497 54.110998 
L 150.827 54.110998 
L 159.157 54.110998 
" style="fill: none; stroke: #1f77b4; stroke-width: 1.5; stroke-linecap: square"/>
    </g>
    <g id="text_110">
     <!-- lag-1 -->
     <g transform="translate(165.821 57.026498) scale(0.0833 -0.0833)">
      <use xlink:href="#DejaVuSans-6c"/>
      <use xlink:href="#DejaVuSans-61" x="27.783203"/>
      <use xlink:href="#DejaVuSans-67" x="89.0625"/>
      <use xlink:href="#DejaVuSans-2d" x="152.539062"/>
      <use xlink:href="#DejaVuSans-31" x="188.623047"/>
     </g>
    </g>
    <g id="line2d_112">
     <path d="M 142.497 66.337877 
L 150.827 66.337877 
L 159.157 66.337877 
" style="fill: none; stroke: #ff7f0e; stroke-width: 1.5; stroke-linecap: square"/>
    </g>
    <g id="text_111">
     <!-- lag-2 -->
     <g transform="translate(165.821 69.253377) scale(0.0833 -0.0833)">
      <defs>
       <path id="DejaVuSans-32" d="M 1228 531 
L 3431 531 
L 3431 0 
L 469 0 
L 469 531 
Q 828 903 1448 1529 
Q 2069 2156 2228 2338 
Q 2531 2678 2651 2914 
Q 2772 3150 2772 3378 
Q 2772 3750 2511 3984 
Q 2250 4219 1831 4219 
Q 1534 4219 1204 4116 
Q 875 4013 500 3803 
L 500 4441 
Q 881 4594 1212 4672 
Q 1544 4750 1819 4750 
Q 2544 4750 2975 4387 
Q 3406 4025 3406 3419 
Q 3406 3131 3298 2873 
Q 3191 2616 2906 2266 
Q 2828 2175 2409 1742 
Q 1991 1309 1228 531 
z
" transform="scale(0.015625)"/>
      </defs>
      <use xlink:href="#DejaVuSans-6c"/>
      <use xlink:href="#DejaVuSans-61" x="27.783203"/>
      <use xlink:href="#DejaVuSans-67" x="89.0625"/>
      <use xlink:href="#DejaVuSans-2d" x="152.539062"/>
      <use xlink:href="#DejaVuSans-32" x="188.623047"/>
     </g>
    </g>
    <g id="line2d_113">
     <path d="M 142.497 78.564755 
L 150.827 78.564755 
L 159.157 78.564755 
" style="fill: none; stroke: #2ca02c; stroke-width: 1.5; stroke-linecap: square"/>
    </g>
    <g id="text_112">
     <!-- lag-3 -->
     <g transform="translate(165.821 81.480255) scale(0.0833 -0.0833)">
      <defs>
       <path id="DejaVuSans-33" d="M 2597 2516 
Q 3050 2419 3304 2112 
Q 3559 1806 3559 1356 
Q 3559 666 3084 287 
Q 2609 -91 1734 -91 
Q 1441 -91 1130 -33 
Q 819 25 488 141 
L 488 750 
Q 750 597 1062 519 
Q 1375 441 1716 441 
Q 2309 441 2620 675 
Q 2931 909 2931 1356 
Q 2931 1769 2642 2001 
Q 2353 2234 1838 2234 
L 1294 2234 
L 1294 2753 
L 1863 2753 
Q 2328 2753 2575 2939 
Q 2822 3125 2822 3475 
Q 2822 3834 2567 4026 
Q 2313 4219 1838 4219 
Q 1578 4219 1281 4162 
Q 984 4106 628 3988 
L 628 4550 
Q 988 4650 1302 4700 
Q 1616 4750 1894 4750 
Q 2613 4750 3031 4423 
Q 3450 4097 3450 3541 
Q 3450 3153 3228 2886 
Q 3006 2619 2597 2516 
z
" transform="scale(0.015625)"/>
      </defs>
      <use xlink:href="#DejaVuSans-6c"/>
      <use xlink:href="#DejaVuSans-61" x="27.783203"/>
      <use xlink:href="#DejaVuSans-67" x="89.0625"/>
      <use xlink:href="#DejaVuSans-2d" x="152.539062"/>
      <use xlink:href="#DejaVuSans-33" x="188.623047"/>
     </g>
    </g>
    <g id="line2d_114">
     <path d="M 142.497 90.791633 
L 150.827 90.791633 
L 159.157 90.791633 
" style="fill: none; stroke: #d62728; stroke-width: 1.5; stroke-linecap: square"/>
    </g>
    <g id="text_113">
     <!-- lag-4 -->
     <g transform="translate(165.821 93.707133) scale(0.0833 -0.0833)">
      <defs>
       <path id="DejaVuSans-34" d="M 2419 4116 
L 825 1625 
L 2419 1625 
L 2419 4116 
z
M 2253 4666 
L 3047 4666 
L 3047 1625 
L 3713 1625 
L 3713 1100 
L 3047 1100 
L 3047 0 
L 2419 0 
L 2419 1100 
L 313 1100 
L 313 1709 
L 2253 4666 
z
" transform="scale(0.015625)"/>
      </defs>
      <use xlink:href="#DejaVuSans-6c"/>
      <use xlink:href="#DejaVuSans-61" x="27.783203"/>
      <use xlink:href="#DejaVuSans-67" x="89.0625"/>
      <use xlink:href="#DejaVuSans-2d" x="152.539062"/>
      <use xlink:href="#DejaVuSans-34" x="188.623047"/>
     </g>
    </g>
   </g>
  </g>
 </g>
 <defs>
  <clipPath id="p720111864c">
   <rect x="135" y="43.2" width="837" height="277.2"/>
  </clipPath>
 </defs>
</svg>
